{
	"asset":{
		"generator":"Khronos glTF Blender I/O v4.2.83",
		"version":"2.0"
	},
	"scene":0,
	"scenes":[
		{
			"name":"Scene",
			"nodes":[
				0
			]
		}
	],
	"nodes":[
		{
			"mesh":0,
			"name":"Car"
		}
	],
	"materials":[
		{
			"doubleSided":true,
			"name":"fskin.002/SOLID/TEX/fskin.jpg",
			"pbrMetallicRoughness":{
				"baseColorTexture":{
					"index":0
				},
				"metallicFactor":0,
				"roughnessFactor":0.5
			}
		}
	],
	"meshes":[
		{
			"name":"Car.001",
			"primitives":[
				{
					"attributes":{
						"POSITION":0,
						"NORMAL":1,
						"TEXCOORD_0":2
					},
					"indices":3,
					"material":0
				}
			]
		}
	],
	"textures":[
		{
			"sampler":0,
			"source":0
		}
	],
	"images":[
		{
			"mimeType":"image/jpeg",
			"name":"Car",
			"uri":"Car.jpg"
		}
	],
	"accessors":[
		{
			"bufferView":0,
			"componentType":5126,
			"count":798,
			"max":[
				1.4143799543380737,
				1.7419300079345703,
				3.0946900844573975
			],
			"min":[
				-1.435420036315918,
				0.1716489940881729,
				-3.071510076522827
			],
			"type":"VEC3"
		},
		{
			"bufferView":1,
			"componentType":5126,
			"count":798,
			"type":"VEC3"
		},
		{
			"bufferView":2,
			"componentType":5126,
			"count":798,
			"type":"VEC2"
		},
		{
			"bufferView":3,
			"componentType":5123,
			"count":3288,
			"type":"SCALAR"
		}
	],
	"bufferViews":[
		{
			"buffer":0,
			"byteLength":9576,
			"byteOffset":0,
			"target":34962
		},
		{
			"buffer":0,
			"byteLength":9576,
			"byteOffset":9576,
			"target":34962
		},
		{
			"buffer":0,
			"byteLength":6384,
			"byteOffset":19152,
			"target":34962
		},
		{
			"buffer":0,
			"byteLength":6576,
			"byteOffset":25536,
			"target":34963
		}
	],
	"samplers":[
		{
			"magFilter":9729,
			"minFilter":9987
		}
	],
	"buffers":[
		{
			"byteLength":32112,
			"uri":"Car.bin"
		}
	]
}
