{
	"asset":{
		"generator":"Khronos glTF Blender I/O v5.1.19",
		"version":"2.0"
	},
	"scene":0,
	"scenes":[
		{
			"name":"Scene",
			"nodes":[
				0,
				1,
				2,
				3,
				4
			]
		}
	],
	"nodes":[
		{
			"mesh":0,
			"name":"Car"
		},
		{
			"mesh":1,
			"name":"WheelBackLeft"
		},
		{
			"mesh":2,
			"name":"WheelBackRight"
		},
		{
			"mesh":3,
			"name":"WheelFrontLeft"
		},
		{
			"mesh":4,
			"name":"WheelFrontRight"
		}
	],
	"materials":[
		{
			"doubleSided":true,
			"name":"fskin.002/SOLID/TEX/fskin.jpg",
			"pbrMetallicRoughness":{
				"baseColorFactor":[
					0.800000011920929,
					0.800000011920929,
					0.800000011920929,
					1
				],
				"metallicFactor":0,
				"roughnessFactor":0.5
			}
		},
		{
			"doubleSided":true,
			"name":"fskin.002/SOLID/TEX/fskin.jpg.001",
			"pbrMetallicRoughness":{
				"baseColorFactor":[
					0.800000011920929,
					0.800000011920929,
					0.800000011920929,
					1
				],
				"metallicFactor":0,
				"roughnessFactor":0.5
			}
		},
		{
			"doubleSided":true,
			"name":"fskin.002/SOLID/TEX/fskin.jpg.002",
			"pbrMetallicRoughness":{
				"baseColorFactor":[
					0.800000011920929,
					0.800000011920929,
					0.800000011920929,
					1
				],
				"metallicFactor":0,
				"roughnessFactor":0.5
			}
		},
		{
			"doubleSided":true,
			"name":"fskin.002/SOLID/TEX/fskin.jpg.003",
			"pbrMetallicRoughness":{
				"baseColorFactor":[
					0.800000011920929,
					0.800000011920929,
					0.800000011920929,
					1
				],
				"metallicFactor":0,
				"roughnessFactor":0.5
			}
		},
		{
			"doubleSided":true,
			"name":"fskin.002/SOLID/TEX/fskin.jpg.004",
			"pbrMetallicRoughness":{
				"baseColorFactor":[
					0.800000011920929,
					0.800000011920929,
					0.800000011920929,
					1
				],
				"metallicFactor":0,
				"roughnessFactor":0.5
			}
		}
	],
	"meshes":[
		{
			"name":"Car",
			"primitives":[
				{
					"attributes":{
						"POSITION":0,
						"NORMAL":1
					},
					"indices":2,
					"material":0
				}
			]
		},
		{
			"name":"WheelBackLeft",
			"primitives":[
				{
					"attributes":{
						"POSITION":3,
						"NORMAL":4
					},
					"indices":5,
					"material":1
				}
			]
		},
		{
			"name":"WheelBackRight",
			"primitives":[
				{
					"attributes":{
						"POSITION":6,
						"NORMAL":7
					},
					"indices":8,
					"material":2
				}
			]
		},
		{
			"name":"WheelFrontLeft",
			"primitives":[
				{
					"attributes":{
						"POSITION":9,
						"NORMAL":10
					},
					"indices":11,
					"material":3
				}
			]
		},
		{
			"name":"WheelFrontRight",
			"primitives":[
				{
					"attributes":{
						"POSITION":12,
						"NORMAL":13
					},
					"indices":14,
					"material":4
				}
			]
		}
	],
	"accessors":[
		{
			"bufferView":0,
			"componentType":5126,
			"count":798,
			"max":[
				1.4143760204315186,
				1.741929054260254,
				3.0946900844573975
			],
			"min":[
				-1.4354170560836792,
				0.1716489940881729,
				-3.0715110301971436
			],
			"type":"VEC3"
		},
		{
			"bufferView":1,
			"componentType":5126,
			"count":798,
			"type":"VEC3"
		},
		{
			"bufferView":2,
			"componentType":5123,
			"count":3288,
			"type":"SCALAR"
		},
		{
			"bufferView":3,
			"componentType":5126,
			"count":174,
			"max":[
				-0.9168620109558105,
				0.946304976940155,
				2.573935031890869
			],
			"min":[
				-1.3459980487823486,
				0.0008440000237897038,
				1.629017949104309
			],
			"type":"VEC3"
		},
		{
			"bufferView":4,
			"componentType":5126,
			"count":174,
			"type":"VEC3"
		},
		{
			"bufferView":5,
			"componentType":5123,
			"count":732,
			"type":"SCALAR"
		},
		{
			"bufferView":6,
			"componentType":5126,
			"count":174,
			"max":[
				1.324957013130188,
				0.946304976940155,
				2.573935031890869
			],
			"min":[
				0.8958209753036499,
				0.0008440000237897038,
				1.629017949104309
			],
			"type":"VEC3"
		},
		{
			"bufferView":7,
			"componentType":5126,
			"count":174,
			"type":"VEC3"
		},
		{
			"bufferView":8,
			"componentType":5123,
			"count":732,
			"type":"SCALAR"
		},
		{
			"bufferView":9,
			"componentType":5126,
			"count":174,
			"max":[
				-0.9168620109558105,
				0.946304976940155,
				-1.2177319526672363
			],
			"min":[
				-1.3459980487823486,
				0.0008440000237897038,
				-2.162648916244507
			],
			"type":"VEC3"
		},
		{
			"bufferView":10,
			"componentType":5126,
			"count":174,
			"type":"VEC3"
		},
		{
			"bufferView":11,
			"componentType":5123,
			"count":732,
			"type":"SCALAR"
		},
		{
			"bufferView":12,
			"componentType":5126,
			"count":174,
			"max":[
				1.324957013130188,
				0.946304976940155,
				-1.2177319526672363
			],
			"min":[
				0.8958209753036499,
				0.0008440000237897038,
				-2.162648916244507
			],
			"type":"VEC3"
		},
		{
			"bufferView":13,
			"componentType":5126,
			"count":174,
			"type":"VEC3"
		},
		{
			"bufferView":14,
			"componentType":5123,
			"count":732,
			"type":"SCALAR"
		}
	],
	"bufferViews":[
		{
			"buffer":0,
			"byteLength":9576,
			"byteOffset":0,
			"target":34962
		},
		{
			"buffer":0,
			"byteLength":9576,
			"byteOffset":9576,
			"target":34962
		},
		{
			"buffer":0,
			"byteLength":6576,
			"byteOffset":19152,
			"target":34963
		},
		{
			"buffer":0,
			"byteLength":2088,
			"byteOffset":25728,
			"target":34962
		},
		{
			"buffer":0,
			"byteLength":2088,
			"byteOffset":27816,
			"target":34962
		},
		{
			"buffer":0,
			"byteLength":1464,
			"byteOffset":29904,
			"target":34963
		},
		{
			"buffer":0,
			"byteLength":2088,
			"byteOffset":31368,
			"target":34962
		},
		{
			"buffer":0,
			"byteLength":2088,
			"byteOffset":33456,
			"target":34962
		},
		{
			"buffer":0,
			"byteLength":1464,
			"byteOffset":35544,
			"target":34963
		},
		{
			"buffer":0,
			"byteLength":2088,
			"byteOffset":37008,
			"target":34962
		},
		{
			"buffer":0,
			"byteLength":2088,
			"byteOffset":39096,
			"target":34962
		},
		{
			"buffer":0,
			"byteLength":1464,
			"byteOffset":41184,
			"target":34963
		},
		{
			"buffer":0,
			"byteLength":2088,
			"byteOffset":42648,
			"target":34962
		},
		{
			"buffer":0,
			"byteLength":2088,
			"byteOffset":44736,
			"target":34962
		},
		{
			"buffer":0,
			"byteLength":1464,
			"byteOffset":46824,
			"target":34963
		}
	],
	"buffers":[
		{
			"byteLength":48288,
			"uri":"CarScene.bin"
		}
	]
}
