{
	"asset":{
		"generator":"Khronos glTF Blender I/O v4.2.83",
		"version":"2.0"
	},
	"scene":0,
	"scenes":[
		{
			"name":"Scene",
			"nodes":[
				0,
				1,
				2,
				3,
				4
			]
		}
	],
	"nodes":[
		{
			"mesh":0,
			"name":"back_left"
		},
		{
			"mesh":1,
			"name":"back_right"
		},
		{
			"mesh":2,
			"name":"car"
		},
		{
			"mesh":3,
			"name":"front_right"
		},
		{
			"mesh":4,
			"name":"front_left"
		}
	],
	"materials":[
		{
			"doubleSided":true,
			"name":"fskin.002/SOLID/TEX/fskin.jpg",
			"pbrMetallicRoughness":{
				"baseColorTexture":{
					"index":0
				},
				"metallicFactor":0,
				"roughnessFactor":0.5
			}
		}
	],
	"meshes":[
		{
			"name":"WheelBackLeft",
			"primitives":[
				{
					"attributes":{
						"POSITION":0,
						"NORMAL":1,
						"TEXCOORD_0":2
					},
					"indices":3,
					"material":0
				}
			]
		},
		{
			"name":"WheelBackRight",
			"primitives":[
				{
					"attributes":{
						"POSITION":4,
						"NORMAL":5,
						"TEXCOORD_0":6
					},
					"indices":7,
					"material":0
				}
			]
		},
		{
			"name":"Car",
			"primitives":[
				{
					"attributes":{
						"POSITION":8,
						"NORMAL":9,
						"TEXCOORD_0":10
					},
					"indices":11,
					"material":0
				}
			]
		},
		{
			"name":"WheelFrontRight",
			"primitives":[
				{
					"attributes":{
						"POSITION":12,
						"NORMAL":13,
						"TEXCOORD_0":14
					},
					"indices":15,
					"material":0
				}
			]
		},
		{
			"name":"WheelFrontLeft",
			"primitives":[
				{
					"attributes":{
						"POSITION":16,
						"NORMAL":17,
						"TEXCOORD_0":18
					},
					"indices":19,
					"material":0
				}
			]
		}
	],
	"textures":[
		{
			"sampler":0,
			"source":0
		}
	],
	"images":[
		{
			"mimeType":"image/jpeg",
			"name":"Car",
			"uri":"Car.jpg"
		}
	],
	"accessors":[
		{
			"bufferView":0,
			"componentType":5126,
			"count":174,
			"max":[
				-0.9168620109558105,
				0.946304976940155,
				2.5739400386810303
			],
			"min":[
				-1.3459999561309814,
				0.0008440000237897038,
				1.6290199756622314
			],
			"type":"VEC3"
		},
		{
			"bufferView":1,
			"componentType":5126,
			"count":174,
			"type":"VEC3"
		},
		{
			"bufferView":2,
			"componentType":5126,
			"count":174,
			"type":"VEC2"
		},
		{
			"bufferView":3,
			"componentType":5123,
			"count":732,
			"type":"SCALAR"
		},
		{
			"bufferView":4,
			"componentType":5126,
			"count":174,
			"max":[
				1.3249599933624268,
				0.946304976940155,
				2.5739400386810303
			],
			"min":[
				0.8958209753036499,
				0.0008440000237897038,
				1.6290199756622314
			],
			"type":"VEC3"
		},
		{
			"bufferView":5,
			"componentType":5126,
			"count":174,
			"type":"VEC3"
		},
		{
			"bufferView":6,
			"componentType":5126,
			"count":174,
			"type":"VEC2"
		},
		{
			"bufferView":7,
			"componentType":5123,
			"count":732,
			"type":"SCALAR"
		},
		{
			"bufferView":8,
			"componentType":5126,
			"count":798,
			"max":[
				1.4143799543380737,
				1.7419300079345703,
				3.0946900844573975
			],
			"min":[
				-1.435420036315918,
				0.1716489940881729,
				-3.071510076522827
			],
			"type":"VEC3"
		},
		{
			"bufferView":9,
			"componentType":5126,
			"count":798,
			"type":"VEC3"
		},
		{
			"bufferView":10,
			"componentType":5126,
			"count":798,
			"type":"VEC2"
		},
		{
			"bufferView":11,
			"componentType":5123,
			"count":3288,
			"type":"SCALAR"
		},
		{
			"bufferView":12,
			"componentType":5126,
			"count":174,
			"max":[
				1.3249599933624268,
				0.946304976940155,
				-1.2177300453186035
			],
			"min":[
				0.8958209753036499,
				0.0008440000237897038,
				-2.1626501083374023
			],
			"type":"VEC3"
		},
		{
			"bufferView":13,
			"componentType":5126,
			"count":174,
			"type":"VEC3"
		},
		{
			"bufferView":14,
			"componentType":5126,
			"count":174,
			"type":"VEC2"
		},
		{
			"bufferView":15,
			"componentType":5123,
			"count":732,
			"type":"SCALAR"
		},
		{
			"bufferView":16,
			"componentType":5126,
			"count":174,
			"max":[
				-0.9168620109558105,
				0.946304976940155,
				-1.2177300453186035
			],
			"min":[
				-1.3459999561309814,
				0.0008440000237897038,
				-2.1626501083374023
			],
			"type":"VEC3"
		},
		{
			"bufferView":17,
			"componentType":5126,
			"count":174,
			"type":"VEC3"
		},
		{
			"bufferView":18,
			"componentType":5126,
			"count":174,
			"type":"VEC2"
		},
		{
			"bufferView":19,
			"componentType":5123,
			"count":732,
			"type":"SCALAR"
		}
	],
	"bufferViews":[
		{
			"buffer":0,
			"byteLength":2088,
			"byteOffset":0,
			"target":34962
		},
		{
			"buffer":0,
			"byteLength":2088,
			"byteOffset":2088,
			"target":34962
		},
		{
			"buffer":0,
			"byteLength":1392,
			"byteOffset":4176,
			"target":34962
		},
		{
			"buffer":0,
			"byteLength":1464,
			"byteOffset":5568,
			"target":34963
		},
		{
			"buffer":0,
			"byteLength":2088,
			"byteOffset":7032,
			"target":34962
		},
		{
			"buffer":0,
			"byteLength":2088,
			"byteOffset":9120,
			"target":34962
		},
		{
			"buffer":0,
			"byteLength":1392,
			"byteOffset":11208,
			"target":34962
		},
		{
			"buffer":0,
			"byteLength":1464,
			"byteOffset":12600,
			"target":34963
		},
		{
			"buffer":0,
			"byteLength":9576,
			"byteOffset":14064,
			"target":34962
		},
		{
			"buffer":0,
			"byteLength":9576,
			"byteOffset":23640,
			"target":34962
		},
		{
			"buffer":0,
			"byteLength":6384,
			"byteOffset":33216,
			"target":34962
		},
		{
			"buffer":0,
			"byteLength":6576,
			"byteOffset":39600,
			"target":34963
		},
		{
			"buffer":0,
			"byteLength":2088,
			"byteOffset":46176,
			"target":34962
		},
		{
			"buffer":0,
			"byteLength":2088,
			"byteOffset":48264,
			"target":34962
		},
		{
			"buffer":0,
			"byteLength":1392,
			"byteOffset":50352,
			"target":34962
		},
		{
			"buffer":0,
			"byteLength":1464,
			"byteOffset":51744,
			"target":34963
		},
		{
			"buffer":0,
			"byteLength":2088,
			"byteOffset":53208,
			"target":34962
		},
		{
			"buffer":0,
			"byteLength":2088,
			"byteOffset":55296,
			"target":34962
		},
		{
			"buffer":0,
			"byteLength":1392,
			"byteOffset":57384,
			"target":34962
		},
		{
			"buffer":0,
			"byteLength":1464,
			"byteOffset":58776,
			"target":34963
		}
	],
	"samplers":[
		{
			"magFilter":9729,
			"minFilter":9987
		}
	],
	"buffers":[
		{
			"byteLength":60240,
			"uri":"CarScene.bin"
		}
	]
}
