{
	"asset":{
		"generator":"Khronos glTF Blender I/O v4.2.83",
		"version":"2.0"
	},
	"scene":0,
	"scenes":[
		{
			"name":"Scene",
			"nodes":[
				0
			]
		}
	],
	"nodes":[
		{
			"mesh":0,
			"name":"Tree"
		}
	],
	"materials":[
		{
			"doubleSided":true,
			"name":"Models/Tree/Leaves.j3m",
			"pbrMetallicRoughness":{
				"baseColorFactor":[
					0.800000011920929,
					0.800000011920929,
					0.800000011920929,
					1
				],
				"metallicFactor":0,
				"roughnessFactor":0.4000000059604645
			}
		},
		{
			"doubleSided":true,
			"name":"Models/Tree/Trunk.j3m",
			"pbrMetallicRoughness":{
				"baseColorFactor":[
					0.800000011920929,
					0.800000011920929,
					0.800000011920929,
					1
				],
				"metallicFactor":0,
				"roughnessFactor":0.4000000059604645
			}
		}
	],
	"meshes":[
		{
			"name":"Tree",
			"primitives":[
				{
					"attributes":{
						"POSITION":0,
						"NORMAL":1,
						"TEXCOORD_0":2
					},
					"indices":3,
					"material":0
				},
				{
					"attributes":{
						"POSITION":4,
						"NORMAL":5,
						"TEXCOORD_0":6
					},
					"indices":7,
					"material":1
				}
			]
		}
	],
	"accessors":[
		{
			"bufferView":0,
			"componentType":5126,
			"count":560,
			"max":[
				3.3475899696350098,
				4.063940048217773,
				2.8206899166107178
			],
			"min":[
				-3.262470006942749,
				0.9577670097351074,
				-2.81033992767334
			],
			"type":"VEC3"
		},
		{
			"bufferView":1,
			"componentType":5126,
			"count":560,
			"type":"VEC3"
		},
		{
			"bufferView":2,
			"componentType":5126,
			"count":560,
			"type":"VEC2"
		},
		{
			"bufferView":3,
			"componentType":5123,
			"count":1512,
			"type":"SCALAR"
		},
		{
			"bufferView":4,
			"componentType":5126,
			"count":1414,
			"max":[
				1.7169100046157837,
				3.335210084915161,
				1.5843700170516968
			],
			"min":[
				-1.6450899839401245,
				-0.06545700132846832,
				-1.5077099800109863
			],
			"type":"VEC3"
		},
		{
			"bufferView":5,
			"componentType":5126,
			"count":1414,
			"type":"VEC3"
		},
		{
			"bufferView":6,
			"componentType":5126,
			"count":1414,
			"type":"VEC2"
		},
		{
			"bufferView":7,
			"componentType":5123,
			"count":6723,
			"type":"SCALAR"
		}
	],
	"bufferViews":[
		{
			"buffer":0,
			"byteLength":6720,
			"byteOffset":0,
			"target":34962
		},
		{
			"buffer":0,
			"byteLength":6720,
			"byteOffset":6720,
			"target":34962
		},
		{
			"buffer":0,
			"byteLength":4480,
			"byteOffset":13440,
			"target":34962
		},
		{
			"buffer":0,
			"byteLength":3024,
			"byteOffset":17920,
			"target":34963
		},
		{
			"buffer":0,
			"byteLength":16968,
			"byteOffset":20944,
			"target":34962
		},
		{
			"buffer":0,
			"byteLength":16968,
			"byteOffset":37912,
			"target":34962
		},
		{
			"buffer":0,
			"byteLength":11312,
			"byteOffset":54880,
			"target":34962
		},
		{
			"buffer":0,
			"byteLength":13446,
			"byteOffset":66192,
			"target":34963
		}
	],
	"buffers":[
		{
			"byteLength":79640,
			"uri":"Tree.bin"
		}
	]
}
