{
	"asset":{
		"generator":"Khronos glTF Blender I/O v4.2.83",
		"version":"2.0"
	},
	"scene":0,
	"scenes":[
		{
			"name":"Scene",
			"nodes":[
				0
			]
		}
	],
	"nodes":[
		{
			"mesh":0,
			"name":"MonkeyHead"
		}
	],
	"materials":[
		{
			"doubleSided":true,
			"name":"Models/MonkeyHead/MonkeyHead.j3m",
			"pbrMetallicRoughness":{
				"baseColorFactor":[
					0.800000011920929,
					0.800000011920929,
					0.800000011920929,
					1
				],
				"metallicFactor":0,
				"roughnessFactor":0.4000000059604645
			}
		}
	],
	"meshes":[
		{
			"name":"MonkeyHead",
			"primitives":[
				{
					"attributes":{
						"POSITION":0,
						"NORMAL":1,
						"TEXCOORD_0":2
					},
					"indices":3,
					"material":0
				}
			]
		}
	],
	"accessors":[
		{
			"bufferView":0,
			"componentType":5126,
			"count":2562,
			"max":[
				1.5853300094604492,
				1.2509499788284302,
				1.5354900360107422
			],
			"min":[
				-1.5853300094604492,
				-1.2009299993515015,
				-0.8439679741859436
			],
			"type":"VEC3"
		},
		{
			"bufferView":1,
			"componentType":5126,
			"count":2562,
			"type":"VEC3"
		},
		{
			"bufferView":2,
			"componentType":5126,
			"count":2562,
			"type":"VEC2"
		},
		{
			"bufferView":3,
			"componentType":5123,
			"count":14742,
			"type":"SCALAR"
		}
	],
	"bufferViews":[
		{
			"buffer":0,
			"byteLength":30744,
			"byteOffset":0,
			"target":34962
		},
		{
			"buffer":0,
			"byteLength":30744,
			"byteOffset":30744,
			"target":34962
		},
		{
			"buffer":0,
			"byteLength":20496,
			"byteOffset":61488,
			"target":34962
		},
		{
			"buffer":0,
			"byteLength":29484,
			"byteOffset":81984,
			"target":34963
		}
	],
	"buffers":[
		{
			"byteLength":111468,
			"uri":"MonkeyHead.bin"
		}
	]
}
