{
    "asset": {
        "version": "2.0",
        "generator": "Open Asset Import Library (assimp v5.2.0)"
    },
    "extensionsUsed": [
        "KHR_materials_volume",
        "FB_ngon_encoding"
    ],
    "accessors": [
        {
            "bufferView": 0,
            "byteOffset": 0,
            "componentType": 5126,
            "count": 2562,
            "type": "VEC3",
            "max": [
                1.5853300094604493,
                1.2509499788284302,
                1.5354900360107422
            ],
            "min": [
                -1.5853300094604493,
                -1.2009299993515015,
                -0.8439679741859436
            ]
        },
        {
            "bufferView": 1,
            "byteOffset": 0,
            "componentType": 5126,
            "count": 2562,
            "type": "VEC3",
            "max": [
                0.999763011932373,
                0.9988870024681091,
                0.9987064599990845
            ],
            "min": [
                -0.9999470114707947,
                -0.9988424777984619,
                -0.9996786713600159
            ]
        },
        {
            "bufferView": 2,
            "byteOffset": 0,
            "componentType": 5126,
            "count": 2562,
            "type": "VEC2",
            "max": [
                1.0,
                0.75
            ],
            "min": [
                0.0,
                0.0
            ]
        },
        {
            "bufferView": 3,
            "byteOffset": 0,
            "componentType": 5125,
            "count": 14742,
            "type": "SCALAR",
            "max": [
                2561
            ],
            "min": [
                0
            ]
        }
    ],
    "buffers": [
        {
            "byteLength": 140952,
            "uri": "MonkeyHead.bin"
        }
    ],
    "bufferViews": [
        {
            "buffer": 0,
            "byteOffset": 0,
            "byteLength": 30744,
            "target": 34962
        },
        {
            "buffer": 0,
            "byteOffset": 30744,
            "byteLength": 30744,
            "target": 34962
        },
        {
            "buffer": 0,
            "byteOffset": 61488,
            "byteLength": 20496,
            "target": 34962
        },
        {
            "buffer": 0,
            "byteOffset": 81984,
            "byteLength": 58968,
            "target": 34963
        }
    ],
    "materials": [
        {
            "name": "DefaultMaterial",
            "pbrMetallicRoughness": {
                "baseColorFactor": [
                    0.6000000238418579,
                    0.6000000238418579,
                    0.6000000238418579,
                    1.0
                ],
                "metallicFactor": 0.0
            }
        }
    ],
    "meshes": [
        {
            "primitives": [
                {
                    "mode": 4,
                    "material": 0,
                    "indices": 3,
                    "attributes": {
                        "POSITION": 0,
                        "NORMAL": 1,
                        "TEXCOORD_0": 2
                    }
                }
            ]
        }
    ],
    "nodes": [
        {
            "mesh": 0
        }
    ],
    "scenes": [
        {
            "nodes": [
                0
            ]
        }
    ],
    "scene": 0
}