{
	"asset":{
		"generator":"Khronos glTF Blender I/O v5.1.19",
		"version":"2.0"
	},
	"scene":0,
	"scenes":[
		{
			"name":"Scene",
			"nodes":[
				0
			]
		}
	],
	"nodes":[
		{
			"mesh":0,
			"name":"Ninja"
		}
	],
	"materials":[
		{
			"doubleSided":true,
			"name":"Ninja",
			"pbrMetallicRoughness":{
				"baseColorTexture":{
					"index":0
				},
				"metallicFactor":0,
				"roughnessFactor":0.5
			}
		}
	],
	"meshes":[
		{
			"name":"Ninja.001",
			"primitives":[
				{
					"attributes":{
						"POSITION":0,
						"NORMAL":1,
						"TEXCOORD_0":2
					},
					"indices":3,
					"material":0
				}
			]
		}
	],
	"textures":[
		{
			"sampler":0,
			"source":0
		}
	],
	"images":[
		{
			"mimeType":"image/jpeg",
			"name":"Ninja",
			"uri":"Ninja.jpg"
		}
	],
	"accessors":[
		{
			"bufferView":0,
			"componentType":5126,
			"count":844,
			"max":[
				30.534500122070312,
				191.7899932861328,
				14.357000350952148
			],
			"min":[
				-30.534500122070312,
				0.1408199965953827,
				-83.13639831542969
			],
			"type":"VEC3"
		},
		{
			"bufferView":1,
			"componentType":5126,
			"count":844,
			"type":"VEC3"
		},
		{
			"bufferView":2,
			"componentType":5126,
			"count":844,
			"type":"VEC2"
		},
		{
			"bufferView":3,
			"componentType":5123,
			"count":3024,
			"type":"SCALAR"
		}
	],
	"bufferViews":[
		{
			"buffer":0,
			"byteLength":10128,
			"byteOffset":0,
			"target":34962
		},
		{
			"buffer":0,
			"byteLength":10128,
			"byteOffset":10128,
			"target":34962
		},
		{
			"buffer":0,
			"byteLength":6752,
			"byteOffset":20256,
			"target":34962
		},
		{
			"buffer":0,
			"byteLength":6048,
			"byteOffset":27008,
			"target":34963
		}
	],
	"samplers":[
		{
			"magFilter":9729,
			"minFilter":9987
		}
	],
	"buffers":[
		{
			"byteLength":33056,
			"uri":"Ninja.bin"
		}
	]
}
