{
	"asset":{
		"generator":"Khronos glTF Blender I/O v5.1.19",
		"version":"2.0"
	},
	"scene":0,
	"scenes":[
		{
			"name":"Scene",
			"nodes":[
				0
			]
		}
	],
	"nodes":[
		{
			"mesh":0,
			"name":"Elephant"
		}
	],
	"materials":[
		{
			"doubleSided":true,
			"name":"rightEyeShader",
			"pbrMetallicRoughness":{
				"baseColorTexture":{
					"index":0
				},
				"metallicFactor":0,
				"roughnessFactor":0.5
			}
		},
		{
			"doubleSided":true,
			"name":"Models/Elephant/Elephant.j3m",
			"pbrMetallicRoughness":{
				"baseColorFactor":[
					0.800000011920929,
					0.800000011920929,
					0.800000011920929,
					1
				],
				"metallicFactor":0,
				"roughnessFactor":0.5
			}
		},
		{
			"doubleSided":true,
			"name":"Ele_Tuskh",
			"pbrMetallicRoughness":{
				"baseColorTexture":{
					"index":1
				},
				"metallicFactor":0,
				"roughnessFactor":0.5
			}
		},
		{
			"doubleSided":true,
			"name":"leftEyeShader",
			"pbrMetallicRoughness":{
				"baseColorTexture":{
					"index":2
				},
				"metallicFactor":0,
				"roughnessFactor":0.5
			}
		}
	],
	"meshes":[
		{
			"name":"Elephant",
			"primitives":[
				{
					"attributes":{
						"POSITION":0,
						"NORMAL":1,
						"TEXCOORD_0":2
					},
					"indices":3,
					"material":0
				},
				{
					"attributes":{
						"POSITION":4,
						"NORMAL":5,
						"TEXCOORD_0":6
					},
					"indices":7,
					"material":1
				},
				{
					"attributes":{
						"POSITION":8,
						"NORMAL":9,
						"TEXCOORD_0":10
					},
					"indices":11,
					"material":2
				},
				{
					"attributes":{
						"POSITION":12,
						"NORMAL":13,
						"TEXCOORD_0":14
					},
					"indices":15,
					"material":3
				}
			]
		}
	],
	"textures":[
		{
			"sampler":0,
			"source":0
		},
		{
			"sampler":0,
			"source":1
		},
		{
			"sampler":0,
			"source":0
		}
	],
	"images":[
		{
			"mimeType":"image/jpeg",
			"name":"ElephantEye",
			"uri":"ElephantEye.jpg"
		},
		{
			"mimeType":"image/jpeg",
			"name":"ElephantTusk",
			"uri":"ElephantTusk.jpg"
		}
	],
	"accessors":[
		{
			"bufferView":0,
			"componentType":5126,
			"count":84,
			"max":[
				11.656100273132324,
				65.49019622802734,
				-49.513099670410156
			],
			"min":[
				10.581600189208984,
				64.38839721679688,
				-51.55289840698242
			],
			"type":"VEC3"
		},
		{
			"bufferView":1,
			"componentType":5126,
			"count":84,
			"type":"VEC3"
		},
		{
			"bufferView":2,
			"componentType":5126,
			"count":84,
			"type":"VEC2"
		},
		{
			"bufferView":3,
			"componentType":5123,
			"count":84,
			"type":"SCALAR"
		},
		{
			"bufferView":4,
			"componentType":5126,
			"count":4515,
			"max":[
				33.005699157714844,
				89.3781967163086,
				51.92829895019531
			],
			"min":[
				-33.652000427246094,
				0.23819200694561005,
				-71.45939636230469
			],
			"type":"VEC3"
		},
		{
			"bufferView":5,
			"componentType":5126,
			"count":4515,
			"type":"VEC3"
		},
		{
			"bufferView":6,
			"componentType":5126,
			"count":4515,
			"type":"VEC2"
		},
		{
			"bufferView":7,
			"componentType":5123,
			"count":4515,
			"type":"SCALAR"
		},
		{
			"bufferView":8,
			"componentType":5126,
			"count":411,
			"max":[
				18.37459945678711,
				55.80939865112305,
				-53.0349006652832
			],
			"min":[
				-18.37459945678711,
				42.0452995300293,
				-89.13719940185547
			],
			"type":"VEC3"
		},
		{
			"bufferView":9,
			"componentType":5126,
			"count":411,
			"type":"VEC3"
		},
		{
			"bufferView":10,
			"componentType":5126,
			"count":411,
			"type":"VEC2"
		},
		{
			"bufferView":11,
			"componentType":5123,
			"count":411,
			"type":"SCALAR"
		},
		{
			"bufferView":12,
			"componentType":5126,
			"count":87,
			"max":[
				-10.598099708557129,
				65.56500244140625,
				-49.66830062866211
			],
			"min":[
				-11.429900169372559,
				64.30359649658203,
				-51.56010055541992
			],
			"type":"VEC3"
		},
		{
			"bufferView":13,
			"componentType":5126,
			"count":87,
			"type":"VEC3"
		},
		{
			"bufferView":14,
			"componentType":5126,
			"count":87,
			"type":"VEC2"
		},
		{
			"bufferView":15,
			"componentType":5123,
			"count":87,
			"type":"SCALAR"
		}
	],
	"bufferViews":[
		{
			"buffer":0,
			"byteLength":1008,
			"byteOffset":0,
			"target":34962
		},
		{
			"buffer":0,
			"byteLength":1008,
			"byteOffset":1008,
			"target":34962
		},
		{
			"buffer":0,
			"byteLength":672,
			"byteOffset":2016,
			"target":34962
		},
		{
			"buffer":0,
			"byteLength":168,
			"byteOffset":2688,
			"target":34963
		},
		{
			"buffer":0,
			"byteLength":54180,
			"byteOffset":2856,
			"target":34962
		},
		{
			"buffer":0,
			"byteLength":54180,
			"byteOffset":57036,
			"target":34962
		},
		{
			"buffer":0,
			"byteLength":36120,
			"byteOffset":111216,
			"target":34962
		},
		{
			"buffer":0,
			"byteLength":9030,
			"byteOffset":147336,
			"target":34963
		},
		{
			"buffer":0,
			"byteLength":4932,
			"byteOffset":156368,
			"target":34962
		},
		{
			"buffer":0,
			"byteLength":4932,
			"byteOffset":161300,
			"target":34962
		},
		{
			"buffer":0,
			"byteLength":3288,
			"byteOffset":166232,
			"target":34962
		},
		{
			"buffer":0,
			"byteLength":822,
			"byteOffset":169520,
			"target":34963
		},
		{
			"buffer":0,
			"byteLength":1044,
			"byteOffset":170344,
			"target":34962
		},
		{
			"buffer":0,
			"byteLength":1044,
			"byteOffset":171388,
			"target":34962
		},
		{
			"buffer":0,
			"byteLength":696,
			"byteOffset":172432,
			"target":34962
		},
		{
			"buffer":0,
			"byteLength":174,
			"byteOffset":173128,
			"target":34963
		}
	],
	"samplers":[
		{
			"magFilter":9729,
			"minFilter":9987
		}
	],
	"buffers":[
		{
			"byteLength":173304,
			"uri":"Elephant.bin"
		}
	]
}
