{
    "asset": {
        "version": "2.0",
        "generator": "Open Asset Import Library (assimp v5.2.0)"
    },
    "extensionsUsed": [
        "KHR_materials_volume",
        "FB_ngon_encoding"
    ],
    "accessors": [
        {
            "bufferView": 0,
            "byteOffset": 0,
            "componentType": 5126,
            "count": 587,
            "type": "VEC3",
            "max": [
                1.8739429712295533,
                1.0435210466384888,
                4.440668106079102
            ],
            "min": [
                -1.8739429712295533,
                -0.7879589796066284,
                -4.464727878570557
            ]
        },
        {
            "bufferView": 1,
            "byteOffset": 0,
            "componentType": 5126,
            "count": 587,
            "type": "VEC3",
            "max": [
                0.9701640009880066,
                1.0,
                0.9596667885780335
            ],
            "min": [
                -0.9653028845787048,
                -0.9999998807907105,
                -1.0
            ]
        },
        {
            "bufferView": 2,
            "byteOffset": 0,
            "componentType": 5126,
            "count": 587,
            "type": "VEC2",
            "max": [
                0.994055986404419,
                0.9815359711647034
            ],
            "min": [
                0.007019999902695417,
                0.027077019214630128
            ]
        },
        {
            "bufferView": 3,
            "byteOffset": 0,
            "componentType": 5125,
            "count": 2352,
            "type": "SCALAR",
            "max": [
                586
            ],
            "min": [
                0
            ]
        }
    ],
    "buffers": [
        {
            "byteLength": 28192,
            "uri": "boat.bin"
        }
    ],
    "bufferViews": [
        {
            "buffer": 0,
            "byteOffset": 0,
            "byteLength": 7044,
            "target": 34962
        },
        {
            "buffer": 0,
            "byteOffset": 7044,
            "byteLength": 7044,
            "target": 34962
        },
        {
            "buffer": 0,
            "byteOffset": 14088,
            "byteLength": 4696,
            "target": 34962
        },
        {
            "buffer": 0,
            "byteOffset": 18784,
            "byteLength": 9408,
            "target": 34963
        }
    ],
    "materials": [
        {
            "name": "DefaultMaterial",
            "pbrMetallicRoughness": {
                "baseColorFactor": [
                    0.6000000238418579,
                    0.6000000238418579,
                    0.6000000238418579,
                    1.0
                ],
                "metallicFactor": 0.0
            }
        }
    ],
    "meshes": [
        {
            "primitives": [
                {
                    "mode": 4,
                    "material": 0,
                    "indices": 3,
                    "attributes": {
                        "POSITION": 0,
                        "NORMAL": 1,
                        "TEXCOORD_0": 2
                    }
                }
            ]
        }
    ],
    "nodes": [
        {
            "mesh": 0
        }
    ],
    "scenes": [
        {
            "nodes": [
                0
            ]
        }
    ],
    "scene": 0
}