{
	"asset":{
		"generator":"Khronos glTF Blender I/O v5.1.19",
		"version":"2.0"
	},
	"scene":0,
	"scenes":[
		{
			"name":"Scene",
			"nodes":[
				0
			]
		}
	],
	"nodes":[
		{
			"mesh":0,
			"name":"Oto"
		}
	],
	"materials":[
		{
			"doubleSided":true,
			"name":"Material.002/SOLID/TEX/bluewarrior1024.j/VertCol",
			"pbrMetallicRoughness":{
				"baseColorTexture":{
					"index":0
				},
				"metallicFactor":0,
				"roughnessFactor":0.5
			}
		}
	],
	"meshes":[
		{
			"name":"Oto",
			"primitives":[
				{
					"attributes":{
						"POSITION":0,
						"NORMAL":1,
						"COLOR_0":2,
						"COLOR_1":3
					},
					"indices":4,
					"material":0
				}
			]
		}
	],
	"textures":[
		{
			"sampler":0,
			"source":0
		}
	],
	"images":[
		{
			"mimeType":"image/jpeg",
			"name":"Oto",
			"uri":"Oto.jpg"
		}
	],
	"accessors":[
		{
			"bufferView":0,
			"componentType":5126,
			"count":4275,
			"max":[
				3.2395710945129395,
				5.1292338371276855,
				1.3643510341644287
			],
			"min":[
				-3.2687830924987793,
				-4.764244079589844,
				-1.3459219932556152
			],
			"type":"VEC3"
		},
		{
			"bufferView":1,
			"componentType":5126,
			"count":4275,
			"type":"VEC3"
		},
		{
			"bufferView":2,
			"componentType":5121,
			"count":4275,
			"normalized":true,
			"type":"VEC4"
		},
		{
			"bufferView":3,
			"componentType":5123,
			"count":4275,
			"normalized":true,
			"type":"VEC4"
		},
		{
			"bufferView":4,
			"componentType":5123,
			"count":11976,
			"type":"SCALAR"
		}
	],
	"bufferViews":[
		{
			"buffer":0,
			"byteLength":51300,
			"byteOffset":0,
			"target":34962
		},
		{
			"buffer":0,
			"byteLength":51300,
			"byteOffset":51300,
			"target":34962
		},
		{
			"buffer":0,
			"byteLength":17100,
			"byteOffset":102600,
			"target":34962
		},
		{
			"buffer":0,
			"byteLength":34200,
			"byteOffset":119700,
			"target":34962
		},
		{
			"buffer":0,
			"byteLength":23952,
			"byteOffset":153900,
			"target":34963
		}
	],
	"samplers":[
		{
			"magFilter":9729,
			"minFilter":9987
		}
	],
	"buffers":[
		{
			"byteLength":177852,
			"uri":"Oto.bin"
		}
	]
}
