{
    "asset": {
        "version": "2.0",
        "generator": "Open Asset Import Library (assimp v5.2.0)"
    },
    "extensionsUsed": [
        "KHR_materials_pbrSpecularGlossiness",
        "FB_ngon_encoding"
    ],
    "accessors": [
        {
            "bufferView": 0,
            "byteOffset": 0,
            "componentType": 5126,
            "count": 274,
            "type": "VEC3",
            "max": [
                0.7639359831809998,
                4.2598700523376469,
                1.5214840173721314
            ],
            "min": [
                -1.5116039514541627,
                -0.6751610040664673,
                -1.5214849710464478
            ]
        },
        {
            "bufferView": 1,
            "byteOffset": 0,
            "componentType": 5126,
            "count": 274,
            "type": "VEC3",
            "max": [
                1.0,
                1.0,
                1.0
            ],
            "min": [
                -1.0,
                -1.0,
                -1.0
            ]
        },
        {
            "bufferView": 2,
            "byteOffset": 0,
            "componentType": 5126,
            "count": 274,
            "type": "VEC2",
            "max": [
                0.9961900115013123,
                0.9997310042381287
            ],
            "min": [
                0.004356000106781721,
                0.0012670159339904786
            ]
        },
        {
            "bufferView": 3,
            "byteOffset": 0,
            "componentType": 5125,
            "count": 480,
            "type": "SCALAR",
            "max": [
                273
            ],
            "min": [
                0
            ]
        }
    ],
    "buffers": [
        {
            "byteLength": 10688,
            "uri": "Sign Post.bin"
        }
    ],
    "bufferViews": [
        {
            "buffer": 0,
            "byteOffset": 0,
            "byteLength": 3288,
            "target": 34962
        },
        {
            "buffer": 0,
            "byteOffset": 3288,
            "byteLength": 3288,
            "target": 34962
        },
        {
            "buffer": 0,
            "byteOffset": 6576,
            "byteLength": 2192,
            "target": 34962
        },
        {
            "buffer": 0,
            "byteOffset": 8768,
            "byteLength": 1920,
            "target": 34963
        }
    ],
    "images": [
        {
            "uri": "signpost_color.jpg"
        }
    ],
    "materials": [
        {
            "name": "Signpost/SOLID/TEX/signpost_color.jpg",
            "pbrMetallicRoughness": {
                "baseColorTexture": {
                    "index": 0
                },
                "metallicFactor": 0.0
            },
            "extensions": {
                "KHR_materials_pbrSpecularGlossiness": {
                    "specularFactor": [
                        0.5,
                        0.5,
                        0.5
                    ],
                    "diffuseTexture": {
                        "index": 0
                    }
                }
            }
        }
    ],
    "meshes": [
        {
            "primitives": [
                {
                    "mode": 4,
                    "material": 0,
                    "indices": 3,
                    "attributes": {
                        "POSITION": 0,
                        "NORMAL": 1,
                        "TEXCOORD_0": 2
                    }
                }
            ]
        }
    ],
    "nodes": [
        {
            "mesh": 0
        }
    ],
    "samplers": [
        {}
    ],
    "scenes": [
        {
            "nodes": [
                0
            ]
        }
    ],
    "textures": [
        {
            "source": 0,
            "sampler": 0
        }
    ],
    "scene": 0
}