{
	"asset":{
		"generator":"Khronos glTF Blender I/O v4.2.83",
		"version":"2.0"
	},
	"scene":0,
	"scenes":[
		{
			"name":"Scene",
			"nodes":[
				0
			]
		}
	],
	"nodes":[
		{
			"mesh":0,
			"name":"Sign_Post"
		}
	],
	"materials":[
		{
			"doubleSided":true,
			"name":"Signpost/SOLID/TEX/signpost_color.jpg",
			"pbrMetallicRoughness":{
				"baseColorFactor":[
					0.800000011920929,
					0.800000011920929,
					0.800000011920929,
					1
				],
				"metallicFactor":0,
				"roughnessFactor":0.5
			}
		}
	],
	"meshes":[
		{
			"name":"Sign_Post",
			"primitives":[
				{
					"attributes":{
						"POSITION":0,
						"NORMAL":1
					},
					"indices":2,
					"material":0
				}
			]
		}
	],
	"accessors":[
		{
			"bufferView":0,
			"componentType":5126,
			"count":275,
			"max":[
				0.7639359831809998,
				4.2598700523376465,
				1.5214840173721313
			],
			"min":[
				-1.5116039514541626,
				-0.6751610040664673,
				-1.5214849710464478
			],
			"type":"VEC3"
		},
		{
			"bufferView":1,
			"componentType":5126,
			"count":275,
			"type":"VEC3"
		},
		{
			"bufferView":2,
			"componentType":5123,
			"count":480,
			"type":"SCALAR"
		}
	],
	"bufferViews":[
		{
			"buffer":0,
			"byteLength":3300,
			"byteOffset":0,
			"target":34962
		},
		{
			"buffer":0,
			"byteLength":3300,
			"byteOffset":3300,
			"target":34962
		},
		{
			"buffer":0,
			"byteLength":960,
			"byteOffset":6600,
			"target":34963
		}
	],
	"buffers":[
		{
			"byteLength":7560,
			"uri":"SignPost.bin"
		}
	]
}
