{
	"asset":{
		"generator":"Khronos glTF Blender I/O v5.1.19",
		"version":"2.0"
	},
	"scene":0,
	"scenes":[
		{
			"name":"Scene",
			"nodes":[
				0
			]
		}
	],
	"nodes":[
		{
			"mesh":0,
			"name":"Sinbad"
		}
	],
	"materials":[
		{
			"doubleSided":true,
			"name":"Sinbad/Clothes",
			"pbrMetallicRoughness":{
				"baseColorTexture":{
					"index":0
				},
				"metallicFactor":0,
				"roughnessFactor":0.5
			}
		},
		{
			"doubleSided":true,
			"name":"Sinbad/Eyes",
			"pbrMetallicRoughness":{
				"baseColorTexture":{
					"index":1
				},
				"metallicFactor":0,
				"roughnessFactor":0.5
			}
		},
		{
			"doubleSided":true,
			"name":"Sinbad/Body",
			"pbrMetallicRoughness":{
				"baseColorTexture":{
					"index":2
				},
				"metallicFactor":0,
				"roughnessFactor":0.5
			}
		},
		{
			"doubleSided":true,
			"name":"Sinbad/Gold",
			"pbrMetallicRoughness":{
				"baseColorTexture":{
					"index":3
				},
				"metallicFactor":0,
				"roughnessFactor":0.5
			}
		},
		{
			"doubleSided":true,
			"name":"Sinbad/Teeth",
			"pbrMetallicRoughness":{
				"baseColorTexture":{
					"index":4
				},
				"metallicFactor":0,
				"roughnessFactor":0.5
			}
		},
		{
			"doubleSided":true,
			"name":"Sinbad/Sheaths",
			"pbrMetallicRoughness":{
				"baseColorTexture":{
					"index":5
				},
				"metallicFactor":0,
				"roughnessFactor":0.5
			}
		},
		{
			"doubleSided":true,
			"name":"Sinbad/Spikes",
			"pbrMetallicRoughness":{
				"baseColorTexture":{
					"index":6
				},
				"metallicFactor":0,
				"roughnessFactor":0.5
			}
		}
	],
	"meshes":[
		{
			"name":"Sinbad",
			"primitives":[
				{
					"attributes":{
						"POSITION":0,
						"NORMAL":1
					},
					"indices":2,
					"material":0
				},
				{
					"attributes":{
						"POSITION":3,
						"NORMAL":4
					},
					"indices":5,
					"material":1
				},
				{
					"attributes":{
						"POSITION":6,
						"NORMAL":7
					},
					"indices":8,
					"material":2
				},
				{
					"attributes":{
						"POSITION":9,
						"NORMAL":10
					},
					"indices":11,
					"material":3
				},
				{
					"attributes":{
						"POSITION":12,
						"NORMAL":13
					},
					"indices":14,
					"material":4
				},
				{
					"attributes":{
						"POSITION":15,
						"NORMAL":16
					},
					"indices":17,
					"material":5
				},
				{
					"attributes":{
						"POSITION":18,
						"NORMAL":19
					},
					"indices":20,
					"material":6
				}
			]
		}
	],
	"textures":[
		{
			"sampler":0,
			"source":0
		},
		{
			"sampler":0,
			"source":1
		},
		{
			"sampler":0,
			"source":1
		},
		{
			"sampler":0,
			"source":0
		},
		{
			"sampler":0,
			"source":1
		},
		{
			"sampler":0,
			"source":2
		},
		{
			"sampler":0,
			"source":0
		}
	],
	"images":[
		{
			"mimeType":"image/jpeg",
			"name":"sinbad_clothes",
			"uri":"sinbad_clothes.jpg"
		},
		{
			"mimeType":"image/jpeg",
			"name":"sinbad_body",
			"uri":"sinbad_body.jpg"
		},
		{
			"mimeType":"image/jpeg",
			"name":"sinbad_sword",
			"uri":"sinbad_sword.jpg"
		}
	],
	"accessors":[
		{
			"bufferView":0,
			"componentType":5126,
			"count":1535,
			"max":[
				3.8616418838500977,
				3.965691089630127,
				1.4896960258483887
			],
			"min":[
				-3.8616418838500977,
				-4.9656901359558105,
				-1.0200309753417969
			],
			"type":"VEC3"
		},
		{
			"bufferView":1,
			"componentType":5126,
			"count":1535,
			"type":"VEC3"
		},
		{
			"bufferView":2,
			"componentType":5123,
			"count":5358,
			"type":"SCALAR"
		},
		{
			"bufferView":3,
			"componentType":5126,
			"count":292,
			"max":[
				0.4869230091571808,
				3.5960280895233154,
				1.054137945175171
			],
			"min":[
				-0.4869230091571808,
				3.1431729793548584,
				0.6013339757919312
			],
			"type":"VEC3"
		},
		{
			"bufferView":4,
			"componentType":5126,
			"count":292,
			"type":"VEC3"
		},
		{
			"bufferView":5,
			"componentType":5123,
			"count":1584,
			"type":"SCALAR"
		},
		{
			"bufferView":6,
			"componentType":5126,
			"count":1888,
			"max":[
				4.444268226623535,
				3.8971939086914062,
				2.3484959602355957
			],
			"min":[
				-4.444268226623535,
				-0.8759629726409912,
				-0.9376429915428162
			],
			"type":"VEC3"
		},
		{
			"bufferView":7,
			"componentType":5126,
			"count":1888,
			"type":"VEC3"
		},
		{
			"bufferView":8,
			"componentType":5123,
			"count":8808,
			"type":"SCALAR"
		},
		{
			"bufferView":9,
			"componentType":5126,
			"count":588,
			"max":[
				3.9628798961639404,
				3.164383888244629,
				1.532148003578186
			],
			"min":[
				-3.9628798961639404,
				-0.8391420245170593,
				-0.06276299804449081
			],
			"type":"VEC3"
		},
		{
			"bufferView":10,
			"componentType":5126,
			"count":588,
			"type":"VEC3"
		},
		{
			"bufferView":11,
			"componentType":5123,
			"count":2406,
			"type":"SCALAR"
		},
		{
			"bufferView":12,
			"componentType":5126,
			"count":302,
			"max":[
				0.6702849864959717,
				2.952552080154419,
				1.250417947769165
			],
			"min":[
				-0.6702849864959717,
				2.3240621089935303,
				0.6100479960441589
			],
			"type":"VEC3"
		},
		{
			"bufferView":13,
			"componentType":5126,
			"count":302,
			"type":"VEC3"
		},
		{
			"bufferView":14,
			"componentType":5123,
			"count":1464,
			"type":"SCALAR"
		},
		{
			"bufferView":15,
			"componentType":5126,
			"count":692,
			"max":[
				1.4316819906234741,
				2.64237904548645,
				-0.50347900390625
			],
			"min":[
				-1.3721630573272705,
				-0.9366859793663025,
				-2.3484959602355957
			],
			"type":"VEC3"
		},
		{
			"bufferView":16,
			"componentType":5126,
			"count":692,
			"type":"VEC3"
		},
		{
			"bufferView":17,
			"componentType":5123,
			"count":2544,
			"type":"SCALAR"
		},
		{
			"bufferView":18,
			"componentType":5126,
			"count":252,
			"max":[
				3.772001028060913,
				2.6193668842315674,
				1.3403329849243164
			],
			"min":[
				-3.772001028060913,
				-0.3831619918346405,
				-0.29140201210975647
			],
			"type":"VEC3"
		},
		{
			"bufferView":19,
			"componentType":5126,
			"count":252,
			"type":"VEC3"
		},
		{
			"bufferView":20,
			"componentType":5123,
			"count":672,
			"type":"SCALAR"
		}
	],
	"bufferViews":[
		{
			"buffer":0,
			"byteLength":18420,
			"byteOffset":0,
			"target":34962
		},
		{
			"buffer":0,
			"byteLength":18420,
			"byteOffset":18420,
			"target":34962
		},
		{
			"buffer":0,
			"byteLength":10716,
			"byteOffset":36840,
			"target":34963
		},
		{
			"buffer":0,
			"byteLength":3504,
			"byteOffset":47556,
			"target":34962
		},
		{
			"buffer":0,
			"byteLength":3504,
			"byteOffset":51060,
			"target":34962
		},
		{
			"buffer":0,
			"byteLength":3168,
			"byteOffset":54564,
			"target":34963
		},
		{
			"buffer":0,
			"byteLength":22656,
			"byteOffset":57732,
			"target":34962
		},
		{
			"buffer":0,
			"byteLength":22656,
			"byteOffset":80388,
			"target":34962
		},
		{
			"buffer":0,
			"byteLength":17616,
			"byteOffset":103044,
			"target":34963
		},
		{
			"buffer":0,
			"byteLength":7056,
			"byteOffset":120660,
			"target":34962
		},
		{
			"buffer":0,
			"byteLength":7056,
			"byteOffset":127716,
			"target":34962
		},
		{
			"buffer":0,
			"byteLength":4812,
			"byteOffset":134772,
			"target":34963
		},
		{
			"buffer":0,
			"byteLength":3624,
			"byteOffset":139584,
			"target":34962
		},
		{
			"buffer":0,
			"byteLength":3624,
			"byteOffset":143208,
			"target":34962
		},
		{
			"buffer":0,
			"byteLength":2928,
			"byteOffset":146832,
			"target":34963
		},
		{
			"buffer":0,
			"byteLength":8304,
			"byteOffset":149760,
			"target":34962
		},
		{
			"buffer":0,
			"byteLength":8304,
			"byteOffset":158064,
			"target":34962
		},
		{
			"buffer":0,
			"byteLength":5088,
			"byteOffset":166368,
			"target":34963
		},
		{
			"buffer":0,
			"byteLength":3024,
			"byteOffset":171456,
			"target":34962
		},
		{
			"buffer":0,
			"byteLength":3024,
			"byteOffset":174480,
			"target":34962
		},
		{
			"buffer":0,
			"byteLength":1344,
			"byteOffset":177504,
			"target":34963
		}
	],
	"samplers":[
		{
			"magFilter":9729,
			"minFilter":9987
		}
	],
	"buffers":[
		{
			"byteLength":178848,
			"uri":"Sinbad.bin"
		}
	]
}
