{
	"asset":{
		"generator":"Khronos glTF Blender I/O v5.1.19",
		"version":"2.0"
	},
	"scene":0,
	"scenes":[
		{
			"name":"Scene",
			"nodes":[
				0
			]
		}
	],
	"nodes":[
		{
			"mesh":0,
			"name":"Sword"
		}
	],
	"materials":[
		{
			"doubleSided":true,
			"name":"Sinbad/Ruby",
			"pbrMetallicRoughness":{
				"baseColorTexture":{
					"index":0
				},
				"metallicFactor":0,
				"roughnessFactor":0.5
			}
		},
		{
			"doubleSided":true,
			"name":"Sinbad/Hilt",
			"pbrMetallicRoughness":{
				"baseColorTexture":{
					"index":1
				},
				"metallicFactor":0,
				"roughnessFactor":0.5
			}
		},
		{
			"doubleSided":true,
			"name":"Sinbad/Handle",
			"pbrMetallicRoughness":{
				"baseColorTexture":{
					"index":2
				},
				"metallicFactor":0,
				"roughnessFactor":0.5
			}
		},
		{
			"doubleSided":true,
			"name":"Sinbad/Blade",
			"pbrMetallicRoughness":{
				"baseColorTexture":{
					"index":3
				},
				"metallicFactor":0,
				"roughnessFactor":0.5
			}
		}
	],
	"meshes":[
		{
			"name":"Sword",
			"primitives":[
				{
					"attributes":{
						"POSITION":0,
						"NORMAL":1,
						"TEXCOORD_0":2
					},
					"indices":3,
					"material":0
				},
				{
					"attributes":{
						"POSITION":4,
						"NORMAL":5,
						"TEXCOORD_0":6
					},
					"indices":7,
					"material":1
				},
				{
					"attributes":{
						"POSITION":8,
						"NORMAL":9,
						"TEXCOORD_0":10
					},
					"indices":11,
					"material":2
				},
				{
					"attributes":{
						"POSITION":12,
						"NORMAL":13,
						"TEXCOORD_0":14
					},
					"indices":15,
					"material":3
				}
			]
		}
	],
	"textures":[
		{
			"sampler":0,
			"source":0
		},
		{
			"sampler":0,
			"source":0
		},
		{
			"sampler":0,
			"source":0
		},
		{
			"sampler":0,
			"source":0
		}
	],
	"images":[
		{
			"mimeType":"image/jpeg",
			"name":"sinbad_sword",
			"uri":"sinbad_sword.jpg"
		}
	],
	"accessors":[
		{
			"bufferView":0,
			"componentType":5126,
			"count":72,
			"max":[
				0.23798799514770508,
				0.34813499450683594,
				0.11823099851608276
			],
			"min":[
				-0.23826900124549866,
				-0.34821000695228577,
				-0.11900100111961365
			],
			"type":"VEC3"
		},
		{
			"bufferView":1,
			"componentType":5126,
			"count":72,
			"type":"VEC3"
		},
		{
			"bufferView":2,
			"componentType":5126,
			"count":72,
			"type":"VEC2"
		},
		{
			"bufferView":3,
			"componentType":5123,
			"count":72,
			"type":"SCALAR"
		},
		{
			"bufferView":4,
			"componentType":5126,
			"count":132,
			"max":[
				0.1692499965429306,
				0.9428380131721497,
				0.6371889710426331
			],
			"min":[
				-0.16968299448490143,
				-0.9286580085754395,
				-0.1476919949054718
			],
			"type":"VEC3"
		},
		{
			"bufferView":5,
			"componentType":5126,
			"count":132,
			"type":"VEC3"
		},
		{
			"bufferView":6,
			"componentType":5126,
			"count":132,
			"type":"VEC2"
		},
		{
			"bufferView":7,
			"componentType":5123,
			"count":372,
			"type":"SCALAR"
		},
		{
			"bufferView":8,
			"componentType":5126,
			"count":77,
			"max":[
				0.1737779974937439,
				0.17201100289821625,
				-0.12992799282073975
			],
			"min":[
				-0.17421099543571472,
				-0.17597800493240356,
				-1.7466399669647217
			],
			"type":"VEC3"
		},
		{
			"bufferView":9,
			"componentType":5126,
			"count":77,
			"type":"VEC3"
		},
		{
			"bufferView":10,
			"componentType":5126,
			"count":77,
			"type":"VEC2"
		},
		{
			"bufferView":11,
			"componentType":5123,
			"count":288,
			"type":"SCALAR"
		},
		{
			"bufferView":12,
			"componentType":5126,
			"count":86,
			"max":[
				0.08562599867582321,
				1.0013699531555176,
				5.516310214996338
			],
			"min":[
				-0.08605899661779404,
				-0.26499998569488525,
				0.10970599949359894
			],
			"type":"VEC3"
		},
		{
			"bufferView":13,
			"componentType":5126,
			"count":86,
			"type":"VEC3"
		},
		{
			"bufferView":14,
			"componentType":5126,
			"count":86,
			"type":"VEC2"
		},
		{
			"bufferView":15,
			"componentType":5123,
			"count":234,
			"type":"SCALAR"
		}
	],
	"bufferViews":[
		{
			"buffer":0,
			"byteLength":864,
			"byteOffset":0,
			"target":34962
		},
		{
			"buffer":0,
			"byteLength":864,
			"byteOffset":864,
			"target":34962
		},
		{
			"buffer":0,
			"byteLength":576,
			"byteOffset":1728,
			"target":34962
		},
		{
			"buffer":0,
			"byteLength":144,
			"byteOffset":2304,
			"target":34963
		},
		{
			"buffer":0,
			"byteLength":1584,
			"byteOffset":2448,
			"target":34962
		},
		{
			"buffer":0,
			"byteLength":1584,
			"byteOffset":4032,
			"target":34962
		},
		{
			"buffer":0,
			"byteLength":1056,
			"byteOffset":5616,
			"target":34962
		},
		{
			"buffer":0,
			"byteLength":744,
			"byteOffset":6672,
			"target":34963
		},
		{
			"buffer":0,
			"byteLength":924,
			"byteOffset":7416,
			"target":34962
		},
		{
			"buffer":0,
			"byteLength":924,
			"byteOffset":8340,
			"target":34962
		},
		{
			"buffer":0,
			"byteLength":616,
			"byteOffset":9264,
			"target":34962
		},
		{
			"buffer":0,
			"byteLength":576,
			"byteOffset":9880,
			"target":34963
		},
		{
			"buffer":0,
			"byteLength":1032,
			"byteOffset":10456,
			"target":34962
		},
		{
			"buffer":0,
			"byteLength":1032,
			"byteOffset":11488,
			"target":34962
		},
		{
			"buffer":0,
			"byteLength":688,
			"byteOffset":12520,
			"target":34962
		},
		{
			"buffer":0,
			"byteLength":468,
			"byteOffset":13208,
			"target":34963
		}
	],
	"samplers":[
		{
			"magFilter":9729,
			"minFilter":9987
		}
	],
	"buffers":[
		{
			"byteLength":13676,
			"uri":"Sword.bin"
		}
	]
}
