{
    "asset" : {
        "generator" : "Khronos glTF Blender I/O v1.7.33",
        "version" : "2.0"
    },
    "scene" : 0,
    "scenes" : [
        {
            "extras" : {
                "act" : {
                    "align_co" : 20.0
                }
            },
            "name" : "Scene",
            "nodes" : [
                12
            ]
        }
    ],
    "nodes" : [
        {
            "extras" : {
                "ant_landscape" : {},
                "pov" : {}
            },
            "mesh" : 0,
            "name" : "TerrainC"
        },
        {
            "extras" : {
                "ant_landscape" : {},
                "pov" : {}
            },
            "mesh" : 1,
            "name" : "TerrainE0",
            "translation" : [
                20,
                0,
                0
            ]
        },
        {
            "extras" : {
                "ant_landscape" : {},
                "pov" : {}
            },
            "mesh" : 2,
            "name" : "TerrainE1",
            "translation" : [
                50,
                0,
                0
            ]
        },
        {
            "extras" : {
                "ant_landscape" : {},
                "pov" : {}
            },
            "mesh" : 3,
            "name" : "TerrainN0",
            "translation" : [
                0,
                0,
                -50
            ]
        },
        {
            "extras" : {
                "ant_landscape" : {},
                "pov" : {}
            },
            "mesh" : 4,
            "name" : "TerrainN1",
            "translation" : [
                0,
                0,
                -20
            ]
        },
        {
            "extras" : {
                "ant_landscape" : {},
                "pov" : {}
            },
            "mesh" : 5,
            "name" : "TerrainNE",
            "translation" : [
                20,
                0,
                -20
            ]
        },
        {
            "extras" : {
                "ant_landscape" : {},
                "pov" : {}
            },
            "mesh" : 6,
            "name" : "TerrainNW",
            "translation" : [
                -20,
                0,
                -20
            ]
        },
        {
            "extras" : {
                "ant_landscape" : {},
                "pov" : {}
            },
            "mesh" : 7,
            "name" : "TerrainS",
            "translation" : [
                0,
                0,
                20
            ]
        },
        {
            "extras" : {
                "ant_landscape" : {},
                "pov" : {}
            },
            "mesh" : 8,
            "name" : "TerrainSE",
            "translation" : [
                20,
                0,
                20
            ]
        },
        {
            "extras" : {
                "ant_landscape" : {},
                "pov" : {}
            },
            "mesh" : 9,
            "name" : "TerrainSW",
            "translation" : [
                -20,
                0,
                20
            ]
        },
        {
            "extras" : {
                "ant_landscape" : {},
                "pov" : {}
            },
            "mesh" : 10,
            "name" : "TerrainW0",
            "translation" : [
                -50,
                0,
                0
            ]
        },
        {
            "extras" : {
                "ant_landscape" : {},
                "pov" : {}
            },
            "mesh" : 11,
            "name" : "TerrainW1",
            "translation" : [
                -20,
                0,
                0
            ]
        },
        {
            "children" : [
                0,
                1,
                2,
                3,
                4,
                5,
                6,
                7,
                8,
                9,
                10,
                11
            ],
            "extras" : {
                "pov" : {},
                "ant_landscape" : {},
                "TerrainE" : 2,
                "TerrainN" : 2,
                "TerrainW" : 2
            },
            "name" : "Terrain"
        }
    ],
    "materials" : [
        {
            "doubleSided" : true,
            "extras" : {
                "pov" : {}
            },
            "name" : "grey",
            "pbrMetallicRoughness" : {
                "baseColorTexture" : {
                    "index" : 0
                },
                "metallicFactor" : 0.5136363506317139
            }
        }
    ],
    "meshes" : [
        {
            "name" : "Plane.015",
            "primitives" : [
                {
                    "attributes" : {
                        "POSITION" : 0,
                        "NORMAL" : 1,
                        "TEXCOORD_0" : 2
                    },
                    "indices" : 3,
                    "material" : 0
                }
            ]
        },
        {
            "name" : "Plane.017",
            "primitives" : [
                {
                    "attributes" : {
                        "POSITION" : 4,
                        "NORMAL" : 5,
                        "TEXCOORD_0" : 6
                    },
                    "indices" : 7,
                    "material" : 0
                }
            ]
        },
        {
            "name" : "Plane.018",
            "primitives" : [
                {
                    "attributes" : {
                        "POSITION" : 8,
                        "NORMAL" : 9,
                        "TEXCOORD_0" : 10
                    },
                    "indices" : 11,
                    "material" : 0
                }
            ]
        },
        {
            "name" : "Plane.019",
            "primitives" : [
                {
                    "attributes" : {
                        "POSITION" : 12,
                        "NORMAL" : 13,
                        "TEXCOORD_0" : 14
                    },
                    "indices" : 15,
                    "material" : 0
                }
            ]
        },
        {
            "name" : "Plane.016",
            "primitives" : [
                {
                    "attributes" : {
                        "POSITION" : 16,
                        "NORMAL" : 17,
                        "TEXCOORD_0" : 18
                    },
                    "indices" : 19,
                    "material" : 0
                }
            ]
        },
        {
            "name" : "Plane",
            "primitives" : [
                {
                    "attributes" : {
                        "POSITION" : 20,
                        "NORMAL" : 21,
                        "TEXCOORD_0" : 22
                    },
                    "indices" : 23,
                    "material" : 0
                }
            ]
        },
        {
            "name" : "Plane.010",
            "primitives" : [
                {
                    "attributes" : {
                        "POSITION" : 24,
                        "NORMAL" : 25,
                        "TEXCOORD_0" : 26
                    },
                    "indices" : 27,
                    "material" : 0
                }
            ]
        },
        {
            "name" : "Plane.013",
            "primitives" : [
                {
                    "attributes" : {
                        "POSITION" : 28,
                        "NORMAL" : 29,
                        "TEXCOORD_0" : 30
                    },
                    "indices" : 31,
                    "material" : 0
                }
            ]
        },
        {
            "name" : "Plane.012",
            "primitives" : [
                {
                    "attributes" : {
                        "POSITION" : 32,
                        "NORMAL" : 33,
                        "TEXCOORD_0" : 34
                    },
                    "indices" : 35,
                    "material" : 0
                }
            ]
        },
        {
            "name" : "Plane.011",
            "primitives" : [
                {
                    "attributes" : {
                        "POSITION" : 36,
                        "NORMAL" : 37,
                        "TEXCOORD_0" : 38
                    },
                    "indices" : 39,
                    "material" : 0
                }
            ]
        },
        {
            "name" : "Plane.020",
            "primitives" : [
                {
                    "attributes" : {
                        "POSITION" : 40,
                        "NORMAL" : 41,
                        "TEXCOORD_0" : 42
                    },
                    "indices" : 43,
                    "material" : 0
                }
            ]
        },
        {
            "name" : "Plane.014",
            "primitives" : [
                {
                    "attributes" : {
                        "POSITION" : 44,
                        "NORMAL" : 45,
                        "TEXCOORD_0" : 46
                    },
                    "indices" : 43,
                    "material" : 0
                }
            ]
        }
    ],
    "textures" : [
        {
            "sampler" : 0,
            "source" : 0
        }
    ],
    "images" : [
        {
            "bufferView" : 4,
            "mimeType" : "image/png",
            "name" : "grid-grey"
        }
    ],
    "accessors" : [
        {
            "bufferView" : 0,
            "componentType" : 5126,
            "count" : 4,
            "max" : [
                10,
                0,
                10
            ],
            "min" : [
                -10,
                -4.84751581097953e-08,
                -10
            ],
            "type" : "VEC3"
        },
        {
            "bufferView" : 1,
            "componentType" : 5126,
            "count" : 4,
            "type" : "VEC3"
        },
        {
            "bufferView" : 2,
            "componentType" : 5126,
            "count" : 4,
            "type" : "VEC2"
        },
        {
            "bufferView" : 3,
            "componentType" : 5123,
            "count" : 6,
            "type" : "SCALAR"
        },
        {
            "bufferView" : 5,
            "componentType" : 5126,
            "count" : 135,
            "max" : [
                20,
                11.24304485321045,
                10
            ],
            "min" : [
                -10,
                -4.84751581097953e-08,
                -10
            ],
            "type" : "VEC3"
        },
        {
            "bufferView" : 6,
            "componentType" : 5126,
            "count" : 135,
            "type" : "VEC3"
        },
        {
            "bufferView" : 7,
            "componentType" : 5126,
            "count" : 135,
            "type" : "VEC2"
        },
        {
            "bufferView" : 8,
            "componentType" : 5123,
            "count" : 213,
            "type" : "SCALAR"
        },
        {
            "bufferView" : 9,
            "componentType" : 5126,
            "count" : 102,
            "max" : [
                20,
                10.502482414245605,
                10
            ],
            "min" : [
                -10,
                -4.84751581097953e-08,
                -10
            ],
            "type" : "VEC3"
        },
        {
            "bufferView" : 10,
            "componentType" : 5126,
            "count" : 102,
            "type" : "VEC3"
        },
        {
            "bufferView" : 11,
            "componentType" : 5126,
            "count" : 102,
            "type" : "VEC2"
        },
        {
            "bufferView" : 12,
            "componentType" : 5123,
            "count" : 168,
            "type" : "SCALAR"
        },
        {
            "bufferView" : 13,
            "componentType" : 5126,
            "count" : 138,
            "max" : [
                10,
                10.58102798461914,
                10
            ],
            "min" : [
                -10.000000953674316,
                -4.84751581097953e-08,
                -20
            ],
            "type" : "VEC3"
        },
        {
            "bufferView" : 14,
            "componentType" : 5126,
            "count" : 138,
            "type" : "VEC3"
        },
        {
            "bufferView" : 15,
            "componentType" : 5126,
            "count" : 138,
            "type" : "VEC2"
        },
        {
            "bufferView" : 16,
            "componentType" : 5123,
            "count" : 222,
            "type" : "SCALAR"
        },
        {
            "bufferView" : 17,
            "componentType" : 5126,
            "count" : 145,
            "max" : [
                10,
                10.58102798461914,
                10
            ],
            "min" : [
                -10.000000953674316,
                -4.84751581097953e-08,
                -20
            ],
            "type" : "VEC3"
        },
        {
            "bufferView" : 18,
            "componentType" : 5126,
            "count" : 145,
            "type" : "VEC3"
        },
        {
            "bufferView" : 19,
            "componentType" : 5126,
            "count" : 145,
            "type" : "VEC2"
        },
        {
            "bufferView" : 20,
            "componentType" : 5123,
            "count" : 228,
            "type" : "SCALAR"
        },
        {
            "bufferView" : 21,
            "componentType" : 5126,
            "count" : 234,
            "max" : [
                20,
                10.58102798461914,
                10
            ],
            "min" : [
                -10.000000953674316,
                -4.84751581097953e-08,
                -20
            ],
            "type" : "VEC3"
        },
        {
            "bufferView" : 22,
            "componentType" : 5126,
            "count" : 234,
            "type" : "VEC3"
        },
        {
            "bufferView" : 23,
            "componentType" : 5126,
            "count" : 234,
            "type" : "VEC2"
        },
        {
            "bufferView" : 24,
            "componentType" : 5123,
            "count" : 378,
            "type" : "SCALAR"
        },
        {
            "bufferView" : 25,
            "componentType" : 5126,
            "count" : 283,
            "max" : [
                10,
                10.383468627929688,
                10
            ],
            "min" : [
                -20.000001907348633,
                -4.84751581097953e-08,
                -20
            ],
            "type" : "VEC3"
        },
        {
            "bufferView" : 26,
            "componentType" : 5126,
            "count" : 283,
            "type" : "VEC3"
        },
        {
            "bufferView" : 27,
            "componentType" : 5126,
            "count" : 283,
            "type" : "VEC2"
        },
        {
            "bufferView" : 28,
            "componentType" : 5123,
            "count" : 432,
            "type" : "SCALAR"
        },
        {
            "bufferView" : 29,
            "componentType" : 5126,
            "count" : 64,
            "max" : [
                10,
                9.715374946594238,
                20
            ],
            "min" : [
                -10,
                0,
                -10
            ],
            "type" : "VEC3"
        },
        {
            "bufferView" : 30,
            "componentType" : 5126,
            "count" : 64,
            "type" : "VEC3"
        },
        {
            "bufferView" : 31,
            "componentType" : 5126,
            "count" : 64,
            "type" : "VEC2"
        },
        {
            "bufferView" : 32,
            "componentType" : 5123,
            "count" : 96,
            "type" : "SCALAR"
        },
        {
            "bufferView" : 33,
            "componentType" : 5126,
            "count" : 163,
            "max" : [
                20,
                10.144775390625,
                20
            ],
            "min" : [
                -10,
                0,
                -10
            ],
            "type" : "VEC3"
        },
        {
            "bufferView" : 34,
            "componentType" : 5126,
            "count" : 163,
            "type" : "VEC3"
        },
        {
            "bufferView" : 35,
            "componentType" : 5126,
            "count" : 163,
            "type" : "VEC2"
        },
        {
            "bufferView" : 36,
            "componentType" : 5123,
            "count" : 252,
            "type" : "SCALAR"
        },
        {
            "bufferView" : 37,
            "componentType" : 5126,
            "count" : 240,
            "max" : [
                10.000001907348633,
                10.781072616577148,
                20
            ],
            "min" : [
                -20.000001907348633,
                0,
                -10
            ],
            "type" : "VEC3"
        },
        {
            "bufferView" : 38,
            "componentType" : 5126,
            "count" : 240,
            "type" : "VEC3"
        },
        {
            "bufferView" : 39,
            "componentType" : 5126,
            "count" : 240,
            "type" : "VEC2"
        },
        {
            "bufferView" : 40,
            "componentType" : 5123,
            "count" : 360,
            "type" : "SCALAR"
        },
        {
            "bufferView" : 41,
            "componentType" : 5126,
            "count" : 145,
            "max" : [
                10,
                10.096501350402832,
                10
            ],
            "min" : [
                -20.000001907348633,
                -4.84751581097953e-08,
                -10
            ],
            "type" : "VEC3"
        },
        {
            "bufferView" : 42,
            "componentType" : 5126,
            "count" : 145,
            "type" : "VEC3"
        },
        {
            "bufferView" : 43,
            "componentType" : 5126,
            "count" : 145,
            "type" : "VEC2"
        },
        {
            "bufferView" : 44,
            "componentType" : 5123,
            "count" : 222,
            "type" : "SCALAR"
        },
        {
            "bufferView" : 45,
            "componentType" : 5126,
            "count" : 145,
            "max" : [
                10,
                10.096501350402832,
                10
            ],
            "min" : [
                -20.000001907348633,
                -4.84751581097953e-08,
                -10
            ],
            "type" : "VEC3"
        },
        {
            "bufferView" : 46,
            "componentType" : 5126,
            "count" : 145,
            "type" : "VEC3"
        },
        {
            "bufferView" : 47,
            "componentType" : 5126,
            "count" : 145,
            "type" : "VEC2"
        }
    ],
    "bufferViews" : [
        {
            "buffer" : 0,
            "byteLength" : 48,
            "byteOffset" : 0
        },
        {
            "buffer" : 0,
            "byteLength" : 48,
            "byteOffset" : 48
        },
        {
            "buffer" : 0,
            "byteLength" : 32,
            "byteOffset" : 96
        },
        {
            "buffer" : 0,
            "byteLength" : 12,
            "byteOffset" : 128
        },
        {
            "buffer" : 0,
            "byteLength" : 41042,
            "byteOffset" : 140
        },
        {
            "buffer" : 0,
            "byteLength" : 1620,
            "byteOffset" : 41184
        },
        {
            "buffer" : 0,
            "byteLength" : 1620,
            "byteOffset" : 42804
        },
        {
            "buffer" : 0,
            "byteLength" : 1080,
            "byteOffset" : 44424
        },
        {
            "buffer" : 0,
            "byteLength" : 426,
            "byteOffset" : 45504
        },
        {
            "buffer" : 0,
            "byteLength" : 1224,
            "byteOffset" : 45932
        },
        {
            "buffer" : 0,
            "byteLength" : 1224,
            "byteOffset" : 47156
        },
        {
            "buffer" : 0,
            "byteLength" : 816,
            "byteOffset" : 48380
        },
        {
            "buffer" : 0,
            "byteLength" : 336,
            "byteOffset" : 49196
        },
        {
            "buffer" : 0,
            "byteLength" : 1656,
            "byteOffset" : 49532
        },
        {
            "buffer" : 0,
            "byteLength" : 1656,
            "byteOffset" : 51188
        },
        {
            "buffer" : 0,
            "byteLength" : 1104,
            "byteOffset" : 52844
        },
        {
            "buffer" : 0,
            "byteLength" : 444,
            "byteOffset" : 53948
        },
        {
            "buffer" : 0,
            "byteLength" : 1740,
            "byteOffset" : 54392
        },
        {
            "buffer" : 0,
            "byteLength" : 1740,
            "byteOffset" : 56132
        },
        {
            "buffer" : 0,
            "byteLength" : 1160,
            "byteOffset" : 57872
        },
        {
            "buffer" : 0,
            "byteLength" : 456,
            "byteOffset" : 59032
        },
        {
            "buffer" : 0,
            "byteLength" : 2808,
            "byteOffset" : 59488
        },
        {
            "buffer" : 0,
            "byteLength" : 2808,
            "byteOffset" : 62296
        },
        {
            "buffer" : 0,
            "byteLength" : 1872,
            "byteOffset" : 65104
        },
        {
            "buffer" : 0,
            "byteLength" : 756,
            "byteOffset" : 66976
        },
        {
            "buffer" : 0,
            "byteLength" : 3396,
            "byteOffset" : 67732
        },
        {
            "buffer" : 0,
            "byteLength" : 3396,
            "byteOffset" : 71128
        },
        {
            "buffer" : 0,
            "byteLength" : 2264,
            "byteOffset" : 74524
        },
        {
            "buffer" : 0,
            "byteLength" : 864,
            "byteOffset" : 76788
        },
        {
            "buffer" : 0,
            "byteLength" : 768,
            "byteOffset" : 77652
        },
        {
            "buffer" : 0,
            "byteLength" : 768,
            "byteOffset" : 78420
        },
        {
            "buffer" : 0,
            "byteLength" : 512,
            "byteOffset" : 79188
        },
        {
            "buffer" : 0,
            "byteLength" : 192,
            "byteOffset" : 79700
        },
        {
            "buffer" : 0,
            "byteLength" : 1956,
            "byteOffset" : 79892
        },
        {
            "buffer" : 0,
            "byteLength" : 1956,
            "byteOffset" : 81848
        },
        {
            "buffer" : 0,
            "byteLength" : 1304,
            "byteOffset" : 83804
        },
        {
            "buffer" : 0,
            "byteLength" : 504,
            "byteOffset" : 85108
        },
        {
            "buffer" : 0,
            "byteLength" : 2880,
            "byteOffset" : 85612
        },
        {
            "buffer" : 0,
            "byteLength" : 2880,
            "byteOffset" : 88492
        },
        {
            "buffer" : 0,
            "byteLength" : 1920,
            "byteOffset" : 91372
        },
        {
            "buffer" : 0,
            "byteLength" : 720,
            "byteOffset" : 93292
        },
        {
            "buffer" : 0,
            "byteLength" : 1740,
            "byteOffset" : 94012
        },
        {
            "buffer" : 0,
            "byteLength" : 1740,
            "byteOffset" : 95752
        },
        {
            "buffer" : 0,
            "byteLength" : 1160,
            "byteOffset" : 97492
        },
        {
            "buffer" : 0,
            "byteLength" : 444,
            "byteOffset" : 98652
        },
        {
            "buffer" : 0,
            "byteLength" : 1740,
            "byteOffset" : 99096
        },
        {
            "buffer" : 0,
            "byteLength" : 1740,
            "byteOffset" : 100836
        },
        {
            "buffer" : 0,
            "byteLength" : 1160,
            "byteOffset" : 102576
        }
    ],
    "samplers" : [
        {
            "magFilter" : 9729,
            "minFilter" : 9987
        }
    ],
    "buffers" : [
        {
            "byteLength" : 103736,
            "uri" : "data:application/octet-stream;base64,"
        }
    ]
}
