{
    "asset" : {
        "generator" : "Khronos glTF Blender I/O v1.7.33",
        "version" : "2.0"
    },
    "scene" : 0,
    "scenes" : [
        {
            "extras" : {
                "act" : {
                    "align_co" : 20.0
                }
            },
            "name" : "Scene",
            "nodes" : [
                9
            ]
        }
    ],
    "nodes" : [
        {
            "extras" : {
                "ant_landscape" : {},
                "pov" : {}
            },
            "mesh" : 0,
            "name" : "TerrainC"
        },
        {
            "extras" : {
                "ant_landscape" : {},
                "pov" : {}
            },
            "mesh" : 1,
            "name" : "TerrainE",
            "translation" : [
                20,
                0,
                0
            ]
        },
        {
            "extras" : {
                "ant_landscape" : {},
                "pov" : {}
            },
            "mesh" : 2,
            "name" : "TerrainN",
            "translation" : [
                0,
                0,
                -20
            ]
        },
        {
            "extras" : {
                "ant_landscape" : {},
                "pov" : {}
            },
            "mesh" : 3,
            "name" : "TerrainNE",
            "translation" : [
                20,
                0,
                -20
            ]
        },
        {
            "extras" : {
                "ant_landscape" : {},
                "pov" : {}
            },
            "mesh" : 4,
            "name" : "TerrainNW",
            "translation" : [
                -20,
                0,
                -20
            ]
        },
        {
            "extras" : {
                "ant_landscape" : {},
                "pov" : {}
            },
            "mesh" : 5,
            "name" : "TerrainS",
            "translation" : [
                0,
                0,
                20
            ]
        },
        {
            "extras" : {
                "ant_landscape" : {},
                "pov" : {}
            },
            "mesh" : 6,
            "name" : "TerrainSE",
            "translation" : [
                20,
                0,
                20
            ]
        },
        {
            "extras" : {
                "ant_landscape" : {},
                "pov" : {}
            },
            "mesh" : 7,
            "name" : "TerrainSW",
            "translation" : [
                -20,
                0,
                20
            ]
        },
        {
            "extras" : {
                "ant_landscape" : {},
                "pov" : {}
            },
            "mesh" : 8,
            "name" : "TerrainW",
            "translation" : [
                -20,
                0,
                0
            ]
        },
        {
            "children" : [
                0,
                1,
                2,
                3,
                4,
                5,
                6,
                7,
                8
            ],
            "extras" : {
                "pov" : {},
                "ant_landscape" : {}
            },
            "name" : "Terrain"
        }
    ],
    "materials" : [
        {
            "doubleSided" : true,
            "name" : "grey",
            "pbrMetallicRoughness" : {
                "baseColorTexture" : {
                    "index" : 0
                },
                "metallicFactor" : 0.281818151473999,
                "roughnessFactor" : 0.9045454263687134
            }
        }
    ],
    "meshes" : [
        {
            "name" : "Plane.015",
            "primitives" : [
                {
                    "attributes" : {
                        "POSITION" : 0,
                        "NORMAL" : 1,
                        "TEXCOORD_0" : 2,
                        "TEXCOORD_1" : 3
                    },
                    "indices" : 4,
                    "material" : 0
                }
            ]
        },
        {
            "name" : "Plane.017",
            "primitives" : [
                {
                    "attributes" : {
                        "POSITION" : 5,
                        "NORMAL" : 6,
                        "TEXCOORD_0" : 7,
                        "TEXCOORD_1" : 8
                    },
                    "indices" : 9,
                    "material" : 0
                }
            ]
        },
        {
            "name" : "Plane.016",
            "primitives" : [
                {
                    "attributes" : {
                        "POSITION" : 10,
                        "NORMAL" : 11,
                        "TEXCOORD_0" : 12,
                        "TEXCOORD_1" : 13
                    },
                    "indices" : 14,
                    "material" : 0
                }
            ]
        },
        {
            "name" : "Plane",
            "primitives" : [
                {
                    "attributes" : {
                        "POSITION" : 15,
                        "NORMAL" : 16,
                        "TEXCOORD_0" : 17,
                        "TEXCOORD_1" : 18
                    },
                    "indices" : 19,
                    "material" : 0
                }
            ]
        },
        {
            "name" : "Plane.010",
            "primitives" : [
                {
                    "attributes" : {
                        "POSITION" : 20,
                        "NORMAL" : 21,
                        "TEXCOORD_0" : 22,
                        "TEXCOORD_1" : 23
                    },
                    "indices" : 24,
                    "material" : 0
                }
            ]
        },
        {
            "name" : "Plane.013",
            "primitives" : [
                {
                    "attributes" : {
                        "POSITION" : 25,
                        "NORMAL" : 26,
                        "TEXCOORD_0" : 27,
                        "TEXCOORD_1" : 28
                    },
                    "indices" : 29,
                    "material" : 0
                }
            ]
        },
        {
            "name" : "Plane.012",
            "primitives" : [
                {
                    "attributes" : {
                        "POSITION" : 30,
                        "NORMAL" : 31,
                        "TEXCOORD_0" : 32,
                        "TEXCOORD_1" : 33
                    },
                    "indices" : 34,
                    "material" : 0
                }
            ]
        },
        {
            "name" : "Plane.011",
            "primitives" : [
                {
                    "attributes" : {
                        "POSITION" : 35,
                        "NORMAL" : 36,
                        "TEXCOORD_0" : 37,
                        "TEXCOORD_1" : 38
                    },
                    "indices" : 39,
                    "material" : 0
                }
            ]
        },
        {
            "name" : "Plane.014",
            "primitives" : [
                {
                    "attributes" : {
                        "POSITION" : 40,
                        "NORMAL" : 41,
                        "TEXCOORD_0" : 42,
                        "TEXCOORD_1" : 43
                    },
                    "indices" : 44,
                    "material" : 0
                }
            ]
        }
    ],
    "textures" : [
        {
            "sampler" : 0,
            "source" : 0
        }
    ],
    "images" : [
        {
            "bufferView" : 5,
            "mimeType" : "image/png",
            "name" : "grid-grey"
        }
    ],
    "accessors" : [
        {
            "bufferView" : 0,
            "componentType" : 5126,
            "count" : 4,
            "max" : [
                10,
                0,
                10
            ],
            "min" : [
                -10,
                -4.84751581097953e-08,
                -10
            ],
            "type" : "VEC3"
        },
        {
            "bufferView" : 1,
            "componentType" : 5126,
            "count" : 4,
            "type" : "VEC3"
        },
        {
            "bufferView" : 2,
            "componentType" : 5126,
            "count" : 4,
            "type" : "VEC2"
        },
        {
            "bufferView" : 3,
            "componentType" : 5126,
            "count" : 4,
            "type" : "VEC2"
        },
        {
            "bufferView" : 4,
            "componentType" : 5123,
            "count" : 6,
            "type" : "SCALAR"
        },
        {
            "bufferView" : 6,
            "componentType" : 5126,
            "count" : 164,
            "max" : [
                20,
                11.24304485321045,
                10
            ],
            "min" : [
                -10,
                -4.84751581097953e-08,
                -10
            ],
            "type" : "VEC3"
        },
        {
            "bufferView" : 7,
            "componentType" : 5126,
            "count" : 164,
            "type" : "VEC3"
        },
        {
            "bufferView" : 8,
            "componentType" : 5126,
            "count" : 164,
            "type" : "VEC2"
        },
        {
            "bufferView" : 9,
            "componentType" : 5126,
            "count" : 164,
            "type" : "VEC2"
        },
        {
            "bufferView" : 10,
            "componentType" : 5123,
            "count" : 228,
            "type" : "SCALAR"
        },
        {
            "bufferView" : 11,
            "componentType" : 5126,
            "count" : 172,
            "max" : [
                10,
                10.58102798461914,
                10
            ],
            "min" : [
                -10.000000953674316,
                -4.84751581097953e-08,
                -20
            ],
            "type" : "VEC3"
        },
        {
            "bufferView" : 12,
            "componentType" : 5126,
            "count" : 172,
            "type" : "VEC3"
        },
        {
            "bufferView" : 13,
            "componentType" : 5126,
            "count" : 172,
            "type" : "VEC2"
        },
        {
            "bufferView" : 14,
            "componentType" : 5126,
            "count" : 172,
            "type" : "VEC2"
        },
        {
            "bufferView" : 15,
            "componentType" : 5123,
            "count" : 228,
            "type" : "SCALAR"
        },
        {
            "bufferView" : 16,
            "componentType" : 5126,
            "count" : 282,
            "max" : [
                20,
                10.58102798461914,
                10
            ],
            "min" : [
                -10.000000953674316,
                -4.84751581097953e-08,
                -20
            ],
            "type" : "VEC3"
        },
        {
            "bufferView" : 17,
            "componentType" : 5126,
            "count" : 282,
            "type" : "VEC3"
        },
        {
            "bufferView" : 18,
            "componentType" : 5126,
            "count" : 282,
            "type" : "VEC2"
        },
        {
            "bufferView" : 19,
            "componentType" : 5126,
            "count" : 282,
            "type" : "VEC2"
        },
        {
            "bufferView" : 20,
            "componentType" : 5123,
            "count" : 378,
            "type" : "SCALAR"
        },
        {
            "bufferView" : 21,
            "componentType" : 5126,
            "count" : 320,
            "max" : [
                10,
                10.383468627929688,
                10
            ],
            "min" : [
                -20.000001907348633,
                -4.84751581097953e-08,
                -20
            ],
            "type" : "VEC3"
        },
        {
            "bufferView" : 22,
            "componentType" : 5126,
            "count" : 320,
            "type" : "VEC3"
        },
        {
            "bufferView" : 23,
            "componentType" : 5126,
            "count" : 320,
            "type" : "VEC2"
        },
        {
            "bufferView" : 24,
            "componentType" : 5126,
            "count" : 320,
            "type" : "VEC2"
        },
        {
            "bufferView" : 25,
            "componentType" : 5123,
            "count" : 432,
            "type" : "SCALAR"
        },
        {
            "bufferView" : 26,
            "componentType" : 5126,
            "count" : 70,
            "max" : [
                10,
                9.715374946594238,
                20
            ],
            "min" : [
                -10,
                0,
                -10
            ],
            "type" : "VEC3"
        },
        {
            "bufferView" : 27,
            "componentType" : 5126,
            "count" : 70,
            "type" : "VEC3"
        },
        {
            "bufferView" : 28,
            "componentType" : 5126,
            "count" : 70,
            "type" : "VEC2"
        },
        {
            "bufferView" : 29,
            "componentType" : 5126,
            "count" : 70,
            "type" : "VEC2"
        },
        {
            "bufferView" : 30,
            "componentType" : 5123,
            "count" : 96,
            "type" : "SCALAR"
        },
        {
            "bufferView" : 31,
            "componentType" : 5126,
            "count" : 188,
            "max" : [
                20,
                10.144775390625,
                20
            ],
            "min" : [
                -10,
                0,
                -10
            ],
            "type" : "VEC3"
        },
        {
            "bufferView" : 32,
            "componentType" : 5126,
            "count" : 188,
            "type" : "VEC3"
        },
        {
            "bufferView" : 33,
            "componentType" : 5126,
            "count" : 188,
            "type" : "VEC2"
        },
        {
            "bufferView" : 34,
            "componentType" : 5126,
            "count" : 188,
            "type" : "VEC2"
        },
        {
            "bufferView" : 35,
            "componentType" : 5123,
            "count" : 252,
            "type" : "SCALAR"
        },
        {
            "bufferView" : 36,
            "componentType" : 5126,
            "count" : 270,
            "max" : [
                10.000001907348633,
                10.781072616577148,
                20
            ],
            "min" : [
                -20.000001907348633,
                0,
                -10
            ],
            "type" : "VEC3"
        },
        {
            "bufferView" : 37,
            "componentType" : 5126,
            "count" : 270,
            "type" : "VEC3"
        },
        {
            "bufferView" : 38,
            "componentType" : 5126,
            "count" : 270,
            "type" : "VEC2"
        },
        {
            "bufferView" : 39,
            "componentType" : 5126,
            "count" : 270,
            "type" : "VEC2"
        },
        {
            "bufferView" : 40,
            "componentType" : 5123,
            "count" : 360,
            "type" : "SCALAR"
        },
        {
            "bufferView" : 41,
            "componentType" : 5126,
            "count" : 162,
            "max" : [
                10,
                10.096501350402832,
                10
            ],
            "min" : [
                -20.000001907348633,
                -4.84751581097953e-08,
                -10
            ],
            "type" : "VEC3"
        },
        {
            "bufferView" : 42,
            "componentType" : 5126,
            "count" : 162,
            "type" : "VEC3"
        },
        {
            "bufferView" : 43,
            "componentType" : 5126,
            "count" : 162,
            "type" : "VEC2"
        },
        {
            "bufferView" : 44,
            "componentType" : 5126,
            "count" : 162,
            "type" : "VEC2"
        },
        {
            "bufferView" : 45,
            "componentType" : 5123,
            "count" : 222,
            "type" : "SCALAR"
        }
    ],
    "bufferViews" : [
        {
            "buffer" : 0,
            "byteLength" : 48,
            "byteOffset" : 0
        },
        {
            "buffer" : 0,
            "byteLength" : 48,
            "byteOffset" : 48
        },
        {
            "buffer" : 0,
            "byteLength" : 32,
            "byteOffset" : 96
        },
        {
            "buffer" : 0,
            "byteLength" : 32,
            "byteOffset" : 128
        },
        {
            "buffer" : 0,
            "byteLength" : 12,
            "byteOffset" : 160
        },
        {
            "buffer" : 0,
            "byteLength" : 41042,
            "byteOffset" : 172
        },
        {
            "buffer" : 0,
            "byteLength" : 1968,
            "byteOffset" : 41216
        },
        {
            "buffer" : 0,
            "byteLength" : 1968,
            "byteOffset" : 43184
        },
        {
            "buffer" : 0,
            "byteLength" : 1312,
            "byteOffset" : 45152
        },
        {
            "buffer" : 0,
            "byteLength" : 1312,
            "byteOffset" : 46464
        },
        {
            "buffer" : 0,
            "byteLength" : 456,
            "byteOffset" : 47776
        },
        {
            "buffer" : 0,
            "byteLength" : 2064,
            "byteOffset" : 48232
        },
        {
            "buffer" : 0,
            "byteLength" : 2064,
            "byteOffset" : 50296
        },
        {
            "buffer" : 0,
            "byteLength" : 1376,
            "byteOffset" : 52360
        },
        {
            "buffer" : 0,
            "byteLength" : 1376,
            "byteOffset" : 53736
        },
        {
            "buffer" : 0,
            "byteLength" : 456,
            "byteOffset" : 55112
        },
        {
            "buffer" : 0,
            "byteLength" : 3384,
            "byteOffset" : 55568
        },
        {
            "buffer" : 0,
            "byteLength" : 3384,
            "byteOffset" : 58952
        },
        {
            "buffer" : 0,
            "byteLength" : 2256,
            "byteOffset" : 62336
        },
        {
            "buffer" : 0,
            "byteLength" : 2256,
            "byteOffset" : 64592
        },
        {
            "buffer" : 0,
            "byteLength" : 756,
            "byteOffset" : 66848
        },
        {
            "buffer" : 0,
            "byteLength" : 3840,
            "byteOffset" : 67604
        },
        {
            "buffer" : 0,
            "byteLength" : 3840,
            "byteOffset" : 71444
        },
        {
            "buffer" : 0,
            "byteLength" : 2560,
            "byteOffset" : 75284
        },
        {
            "buffer" : 0,
            "byteLength" : 2560,
            "byteOffset" : 77844
        },
        {
            "buffer" : 0,
            "byteLength" : 864,
            "byteOffset" : 80404
        },
        {
            "buffer" : 0,
            "byteLength" : 840,
            "byteOffset" : 81268
        },
        {
            "buffer" : 0,
            "byteLength" : 840,
            "byteOffset" : 82108
        },
        {
            "buffer" : 0,
            "byteLength" : 560,
            "byteOffset" : 82948
        },
        {
            "buffer" : 0,
            "byteLength" : 560,
            "byteOffset" : 83508
        },
        {
            "buffer" : 0,
            "byteLength" : 192,
            "byteOffset" : 84068
        },
        {
            "buffer" : 0,
            "byteLength" : 2256,
            "byteOffset" : 84260
        },
        {
            "buffer" : 0,
            "byteLength" : 2256,
            "byteOffset" : 86516
        },
        {
            "buffer" : 0,
            "byteLength" : 1504,
            "byteOffset" : 88772
        },
        {
            "buffer" : 0,
            "byteLength" : 1504,
            "byteOffset" : 90276
        },
        {
            "buffer" : 0,
            "byteLength" : 504,
            "byteOffset" : 91780
        },
        {
            "buffer" : 0,
            "byteLength" : 3240,
            "byteOffset" : 92284
        },
        {
            "buffer" : 0,
            "byteLength" : 3240,
            "byteOffset" : 95524
        },
        {
            "buffer" : 0,
            "byteLength" : 2160,
            "byteOffset" : 98764
        },
        {
            "buffer" : 0,
            "byteLength" : 2160,
            "byteOffset" : 100924
        },
        {
            "buffer" : 0,
            "byteLength" : 720,
            "byteOffset" : 103084
        },
        {
            "buffer" : 0,
            "byteLength" : 1944,
            "byteOffset" : 103804
        },
        {
            "buffer" : 0,
            "byteLength" : 1944,
            "byteOffset" : 105748
        },
        {
            "buffer" : 0,
            "byteLength" : 1296,
            "byteOffset" : 107692
        },
        {
            "buffer" : 0,
            "byteLength" : 1296,
            "byteOffset" : 108988
        },
        {
            "buffer" : 0,
            "byteLength" : 444,
            "byteOffset" : 110284
        }
    ],
    "samplers" : [
        {
            "magFilter" : 9729,
            "minFilter" : 9987
        }
    ],
    "buffers" : [
        {
            "byteLength" : 110728,
            "uri" : "data:application/octet-stream;base64,"
        }
    ]
}
