{
    "asset": {
        "version": "2.0",
        "generator": "Open Asset Import Library (assimp v5.2.0)"
    },
    "extensionsUsed": [
        "KHR_materials_volume",
        "FB_ngon_encoding"
    ],
    "accessors": [
        {
            "bufferView": 0,
            "byteOffset": 0,
            "componentType": 5126,
            "count": 174,
            "type": "VEC3",
            "max": [
                0.4230769872665405,
                0.4230769872665405,
                1.067463994026184
            ],
            "min": [
                -0.4230769872665405,
                -0.4230769872665405,
                -0.9325349926948547
            ]
        },
        {
            "bufferView": 1,
            "byteOffset": 0,
            "componentType": 5126,
            "count": 174,
            "type": "VEC3",
            "max": [
                0.9922441244125366,
                0.9922441244125366,
                1.0
            ],
            "min": [
                -1.0,
                -1.0,
                -1.0
            ]
        },
        {
            "bufferView": 2,
            "byteOffset": 0,
            "componentType": 5126,
            "count": 174,
            "type": "VEC2",
            "max": [
                1.0,
                1.0
            ],
            "min": [
                0.0,
                0.0
            ]
        },
        {
            "bufferView": 3,
            "byteOffset": 0,
            "componentType": 5125,
            "count": 804,
            "type": "SCALAR",
            "max": [
                173
            ],
            "min": [
                0
            ]
        }
    ],
    "buffers": [
        {
            "byteLength": 8784,
            "uri": "Rocket.bin"
        }
    ],
    "bufferViews": [
        {
            "buffer": 0,
            "byteOffset": 0,
            "byteLength": 2088,
            "target": 34962
        },
        {
            "buffer": 0,
            "byteOffset": 2088,
            "byteLength": 2088,
            "target": 34962
        },
        {
            "buffer": 0,
            "byteOffset": 4176,
            "byteLength": 1392,
            "target": 34962
        },
        {
            "buffer": 0,
            "byteOffset": 5568,
            "byteLength": 3216,
            "target": 34963
        }
    ],
    "images": [
        {
            "uri": "Rocket.png"
        }
    ],
    "materials": [
        {
            "name": "SOLID/TEX/Rocket.tga",
            "pbrMetallicRoughness": {
                "baseColorTexture": {
                    "index": 0
                },
                "metallicFactor": 0.0
            }
        }
    ],
    "meshes": [
        {
            "primitives": [
                {
                    "mode": 4,
                    "material": 0,
                    "indices": 3,
                    "attributes": {
                        "POSITION": 0,
                        "NORMAL": 1,
                        "TEXCOORD_0": 2
                    }
                }
            ]
        }
    ],
    "nodes": [
        {
            "mesh": 0
        }
    ],
    "samplers": [
        {}
    ],
    "scenes": [
        {
            "nodes": [
                0
            ]
        }
    ],
    "textures": [
        {
            "source": 0,
            "sampler": 0
        }
    ],
    "scene": 0
}