{
	"asset":{
		"generator":"Khronos glTF Blender I/O v5.1.19",
		"version":"2.0"
	},
	"scene":0,
	"scenes":[
		{
			"name":"Scene",
			"nodes":[
				0
			]
		}
	],
	"nodes":[
		{
			"mesh":0,
			"name":"Tank2"
		}
	],
	"materials":[
		{
			"doubleSided":true,
			"name":"Models/HoverTank/tank.j3m",
			"pbrMetallicRoughness":{
				"baseColorFactor":[
					0.800000011920929,
					0.800000011920929,
					0.800000011920929,
					1
				],
				"metallicFactor":0,
				"roughnessFactor":0.5
			}
		}
	],
	"meshes":[
		{
			"name":"Tank2",
			"primitives":[
				{
					"attributes":{
						"POSITION":0,
						"NORMAL":1,
						"TEXCOORD_0":2,
						"COLOR_0":3,
						"COLOR_1":4
					},
					"indices":5,
					"material":0
				}
			]
		}
	],
	"accessors":[
		{
			"bufferView":0,
			"componentType":5126,
			"count":6639,
			"max":[
				4.938399791717529,
				2.7506000995635986,
				6.065849781036377
			],
			"min":[
				-4.938399791717529,
				-1.1489100456237793,
				-5.820030212402344
			],
			"type":"VEC3"
		},
		{
			"bufferView":1,
			"componentType":5126,
			"count":6639,
			"type":"VEC3"
		},
		{
			"bufferView":2,
			"componentType":5126,
			"count":6639,
			"type":"VEC2"
		},
		{
			"bufferView":3,
			"componentType":5121,
			"count":6639,
			"normalized":true,
			"type":"VEC4"
		},
		{
			"bufferView":4,
			"componentType":5123,
			"count":6639,
			"normalized":true,
			"type":"VEC4"
		},
		{
			"bufferView":5,
			"componentType":5123,
			"count":29076,
			"type":"SCALAR"
		}
	],
	"bufferViews":[
		{
			"buffer":0,
			"byteLength":79668,
			"byteOffset":0,
			"target":34962
		},
		{
			"buffer":0,
			"byteLength":79668,
			"byteOffset":79668,
			"target":34962
		},
		{
			"buffer":0,
			"byteLength":53112,
			"byteOffset":159336,
			"target":34962
		},
		{
			"buffer":0,
			"byteLength":26556,
			"byteOffset":212448,
			"target":34962
		},
		{
			"buffer":0,
			"byteLength":53112,
			"byteOffset":239004,
			"target":34962
		},
		{
			"buffer":0,
			"byteLength":58152,
			"byteOffset":292116,
			"target":34963
		}
	],
	"buffers":[
		{
			"byteLength":350268,
			"uri":"Tank2.bin"
		}
	]
}
