{
    "asset": {
        "version": "2.0",
        "generator": "Open Asset Import Library (assimp v5.2.0)"
    },
    "extensionsUsed": [
        "KHR_materials_volume",
        "FB_ngon_encoding"
    ],
    "accessors": [
        {
            "bufferView": 0,
            "byteOffset": 0,
            "componentType": 5126,
            "count": 16641,
            "type": "VEC3",
            "max": [
                1.0237549543380738,
                0.3361240029335022,
                1.0033459663391114
            ],
            "min": [
                -1.0091140270233155,
                -0.0,
                -1.0095009803771973
            ]
        },
        {
            "bufferView": 1,
            "byteOffset": 0,
            "componentType": 5126,
            "count": 16641,
            "type": "VEC3",
            "max": [
                0.8755605816841126,
                1.0,
                0.9375221133232117
            ],
            "min": [
                -0.8247238397598267,
                -0.9978641271591187,
                -0.9875738620758057
            ]
        },
        {
            "bufferView": 2,
            "byteOffset": 0,
            "componentType": 5126,
            "count": 16641,
            "type": "VEC2",
            "max": [
                1.0,
                1.0
            ],
            "min": [
                0.0,
                0.004456996917724609
            ]
        },
        {
            "bufferView": 3,
            "byteOffset": 0,
            "componentType": 5125,
            "count": 98304,
            "type": "SCALAR",
            "max": [
                16640
            ],
            "min": [
                0
            ]
        }
    ],
    "buffers": [
        {
            "byteLength": 925728,
            "uri": "Terrain.bin"
        }
    ],
    "bufferViews": [
        {
            "buffer": 0,
            "byteOffset": 0,
            "byteLength": 199692,
            "target": 34962
        },
        {
            "buffer": 0,
            "byteOffset": 199692,
            "byteLength": 199692,
            "target": 34962
        },
        {
            "buffer": 0,
            "byteOffset": 399384,
            "byteLength": 133128,
            "target": 34962
        },
        {
            "buffer": 0,
            "byteOffset": 532512,
            "byteLength": 393216,
            "target": 34963
        }
    ],
    "materials": [
        {
            "name": "DefaultMaterial",
            "pbrMetallicRoughness": {
                "baseColorFactor": [
                    0.6000000238418579,
                    0.6000000238418579,
                    0.6000000238418579,
                    1.0
                ],
                "metallicFactor": 0.0
            }
        }
    ],
    "meshes": [
        {
            "primitives": [
                {
                    "mode": 4,
                    "material": 0,
                    "indices": 3,
                    "attributes": {
                        "POSITION": 0,
                        "NORMAL": 1,
                        "TEXCOORD_0": 2
                    }
                }
            ]
        }
    ],
    "nodes": [
        {
            "mesh": 0
        }
    ],
    "scenes": [
        {
            "nodes": [
                0
            ]
        }
    ],
    "scene": 0
}