{
	"asset":{
		"generator":"Khronos glTF Blender I/O v4.2.83",
		"version":"2.0"
	},
	"scene":0,
	"scenes":[
		{
			"name":"Scene",
			"nodes":[
				0
			]
		}
	],
	"nodes":[
		{
			"mesh":0,
			"name":"Teapot"
		}
	],
	"materials":[
		{
			"doubleSided":true,
			"name":"Material.001",
			"pbrMetallicRoughness":{
				"baseColorFactor":[
					0.800000011920929,
					0.800000011920929,
					0.800000011920929,
					1
				],
				"metallicFactor":0,
				"roughnessFactor":0.4000000059604645
			}
		}
	],
	"meshes":[
		{
			"name":"Teapot",
			"primitives":[
				{
					"attributes":{
						"POSITION":0,
						"NORMAL":1,
						"TEXCOORD_0":2
					},
					"indices":3,
					"material":0
				}
			]
		}
	],
	"accessors":[
		{
			"bufferView":0,
			"componentType":5126,
			"count":3242,
			"max":[
				3.3138298988342285,
				3.0397698879241943,
				1.9300099611282349
			],
			"min":[
				-2.895020008087158,
				0,
				-1.9300099611282349
			],
			"type":"VEC3"
		},
		{
			"bufferView":1,
			"componentType":5126,
			"count":3242,
			"type":"VEC3"
		},
		{
			"bufferView":2,
			"componentType":5126,
			"count":3242,
			"type":"VEC2"
		},
		{
			"bufferView":3,
			"componentType":5123,
			"count":18960,
			"type":"SCALAR"
		}
	],
	"bufferViews":[
		{
			"buffer":0,
			"byteLength":38904,
			"byteOffset":0,
			"target":34962
		},
		{
			"buffer":0,
			"byteLength":38904,
			"byteOffset":38904,
			"target":34962
		},
		{
			"buffer":0,
			"byteLength":25936,
			"byteOffset":77808,
			"target":34962
		},
		{
			"buffer":0,
			"byteLength":37920,
			"byteOffset":103744,
			"target":34963
		}
	],
	"buffers":[
		{
			"byteLength":141664,
			"uri":"Teapot.bin"
		}
	]
}
